SplineFontDB: 3.0
FontName: N-Lines
FullName: 
FamilyName: N
Weight: 
Copyright: 
UComments: "2011-5-24: Created." 
Version: 0
ItalicAngle: 0
UnderlinePosition: -100
UnderlineWidth: 50
Ascent: 800
Descent: 200
sfntRevision: 0x00000000
LayerCount: 2
Layer: 0 0 "Back"  1
Layer: 1 0 "Zeichenebene"  0
XUID: [1021 201 23757 16427]
FSType: 0
OS2Version: 0
OS2_WeightWidthSlopeOnly: 0
OS2_UseTypoMetrics: 1
CreationTime: 1306259327
ModificationTime: 1409117942
OS2TypoAscent: 0
OS2TypoAOffset: 1
OS2TypoDescent: 0
OS2TypoDOffset: 1
OS2TypoLinegap: 90
OS2WinAscent: 0
OS2WinAOffset: 1
OS2WinDescent: 0
OS2WinDOffset: 1
HheadAscent: 0
HheadAOffset: 1
HheadDescent: 0
HheadDOffset: 1
OS2Vendor: 'PfEd'
MarkAttachClasses: 1
DEI: 91125
LangName: 1033 
Encoding: UnicodeBmp
UnicodeInterp: none
NameList: Adobe Glyph List
DisplaySize: -72
AntiAlias: 1
FitToEm: 1
WinInfo: 0 8 7
BeginPrivate: 0
EndPrivate
Grid
-1000 1000 m 0
 2000 1000 l 1024
-1000 750 m 0
 2000 750 l 1024
-1000 500 m 0
 2000 500 l 1024
-1000 250 m 0
 2000 250 l 1024
  Named: "250" 
EndSplineSet
BeginChars: 65536 149

StartChar: eight
Encoding: 56 56 0
Width: 250
VWidth: 0
Flags: HMW
HStem: 105 20G<185.5 197>
VStem: 125 31<-66.0961 66.0961>
LayerCount: 2
Fore
SplineSet
125 38 m 3
 48 38 18 -6 8 -6 c 3
 4 -6 0 -6 0 0 c 3
 0 18 53 70 125 70 c 3
 197 70 250 18 250 0 c 3
 250 -6 246 -6 242 -6 c 3
 232 -6 202 38 125 38 c 3
EndSplineSet
EndChar

StartChar: nine
Encoding: 57 57 1
Width: 376
VWidth: 0
Flags: HMW
HStem: 165 20G<279 291.5> 165 20G<279 291.5>
VStem: 188 34<-82.2314 82.2314>
LayerCount: 2
Fore
SplineSet
188 66 m 3xa0
 73 66 23 -8 7 -8 c 3
 2 -8 0 -7 0 0 c 3
 0 18 80 100 188 100 c 3
 296 100 376 18 376 0 c 3
 376 -7 374 -8 369 -8 c 3
 353 -8 303 66 188 66 c 3xa0
EndSplineSet
EndChar

StartChar: colon
Encoding: 58 58 2
Width: 500
VWidth: 0
Flags: HMW
HStem: 230 20G<364.5 376>
VStem: 250 36<-109.445 109.445>
LayerCount: 2
Fore
SplineSet
250 123 m 3
 414 123 500 17 500 0 c 3
 500 -6 497 -8 491 -8 c 3
 476 -8 428 87 250 87 c 3
 72 87 24 -8 9 -8 c 3
 3 -8 0 -6 0 0 c 3
 0 17 86 123 250 123 c 3
EndSplineSet
EndChar

StartChar: P
Encoding: 80 80 3
Width: 95
VWidth: 0
Flags: HMW
LayerCount: 2
Back
SplineSet
29 89 m 6
 29 -89 l 6
 29 -100 33 -106 45 -106 c 6
 81 -106 l 6
 94 -106 95 -107 95 -121 c 4
 95 -134 94 -135 83 -135 c 6
 15 -135 l 6
 2 -135 0 -133 0 -120 c 6
 0 120 l 6
 0 133 2 135 15 135 c 6
 83 135 l 6
 94 135 95 134 95 121 c 4
 95 107 94 106 81 106 c 6
 45 106 l 6
 33 106 29 100 29 89 c 6
EndSplineSet
Fore
SplineSet
26 98 m 2
 26 -97 l 2
 26 -103 33 -109 37 -109 c 2
 95 -109 l 1
 95 -135 l 1
 0 -135 l 1
 0 135 l 1
 95 135 l 1
 95 109 l 1
 37 109 l 2
 32 109 26 102 26 98 c 2
EndSplineSet
EndChar

StartChar: Q
Encoding: 81 81 4
Width: 105
VWidth: 0
Flags: HMW
LayerCount: 2
Back
SplineSet
30 151 m 6
 30 -151 l 6
 30 -162 34 -168 46 -168 c 6
 91 -168 l 6
 104 -168 105 -169 105 -184 c 4
 105 -197 104 -198 93 -198 c 6
 15 -198 l 6
 2 -198 0 -196 0 -183 c 6
 0 183 l 6
 0 196 2 198 15 198 c 6
 93 198 l 6
 104 198 105 197 105 184 c 4
 105 169 104 168 91 168 c 6
 46 168 l 6
 34 168 30 162 30 151 c 6
EndSplineSet
Fore
SplineSet
27 160 m 6
 27 -159 l 2
 27 -165 34 -171 38 -171 c 2
 105 -171 l 1
 105 -198 l 1
 0 -198 l 1
 0 198 l 1
 105 198 l 1
 105 171 l 1
 38 171 l 2
 33 171 27 164 27 160 c 6
EndSplineSet
EndChar

StartChar: grave
Encoding: 96 96 5
Width: 95
VWidth: 0
Flags: HMW
LayerCount: 2
Fore
SplineSet
69 -98 m 2
 69 97 l 2
 69 103 62 109 58 109 c 2
 0 109 l 1
 0 135 l 1
 95 135 l 1
 95 -135 l 1
 0 -135 l 1
 0 -109 l 1
 58 -109 l 2
 63 -109 69 -102 69 -98 c 2
EndSplineSet
EndChar

StartChar: a
Encoding: 97 97 6
Width: 105
VWidth: 0
Flags: HMW
LayerCount: 2
Fore
SplineSet
78 -160 m 6
 78 159 l 2
 78 165 71 171 67 171 c 2
 0 171 l 1
 0 198 l 1
 105 198 l 1
 105 -198 l 1
 0 -198 l 1
 0 -171 l 1
 67 -171 l 2
 72 -171 78 -164 78 -160 c 6
EndSplineSet
EndChar

StartChar: b
Encoding: 98 98 7
Width: 115
VWidth: 0
Flags: HMW
HStem: 233 28<0 87> -261 28<0 87>
VStem: 0 115<233 261 -261 -233> 87 28<-233 233>
LayerCount: 2
Fore
SplineSet
87 -222 m 6xd0
 87 221 l 2xd0
 87 227 80 233 76 233 c 2
 0 233 l 1
 0 261 l 1
 115 261 l 1
 115 -261 l 1
 0 -261 l 1
 0 -233 l 1xe0
 76 -233 l 2
 81 -233 87 -226 87 -222 c 6xd0
EndSplineSet
EndChar

StartChar: c
Encoding: 99 99 8
Width: 125
VWidth: 0
Flags: HMW
HStem: 294 29<0 96> -323 29<0 96>
VStem: 0 125<294 323 -323 -294> 96 29<-294 294>
LayerCount: 2
Fore
SplineSet
96 -283 m 2xd0
 96 282 l 2xd0
 96 288 89 294 85 294 c 2
 0 294 l 1
 0 323 l 1
 125 323 l 1
 125 -323 l 1
 0 -323 l 1
 0 -294 l 1xe0
 85 -294 l 2
 90 -294 96 -287 96 -283 c 2xd0
EndSplineSet
EndChar

StartChar: d
Encoding: 100 100 9
Width: 135
VWidth: 0
Flags: HW
HStem: 355 30<0 105> -385 30<0 105>
VStem: 105 30<-355 355>
LayerCount: 2
Fore
SplineSet
105 -344 m 2
 105 343 l 2
 105 349 98 355 94 355 c 2
 0 355 l 1
 0 385 l 1
 135 385 l 1
 135 -385 l 1
 0 -385 l 1
 0 -355 l 1
 94 -355 l 2
 99 -355 105 -348 105 -344 c 2
EndSplineSet
EndChar

StartChar: Egrave
Encoding: 200 200 10
Width: 778
Flags: W
HStem: -1023 38<301.981 474.904> -19 38<-18.9942 156.592 620.088 796.998>
VStem: 619 38<-799.422 -513.766>
LayerCount: 2
Back
SplineSet
0 0 m 21
 710 0 809 -1004 389 -1004 c 7
 -31 -1004 68 0 778 0 c 1037
434 -77 m 0
 540 -12 661 25 778 25 c 0
 795 25 795 16 795 0 c 0
 795 -14 795 -25 778 -25 c 0
 680 -25 576 -54 484 -106 c 0
 425 -139 444 -153 475 -184 c 0
 581 -300 653 -455 653 -644 c 0
 653 -849 541 -1025 389 -1025 c 0
 233 -1025 125 -844 125 -644 c 0
 125 -450 200 -292 309 -179 c 0
 345 -142 354 -141 305 -112 c 0
 212 -57 104 -25 0 -25 c 0
 -10 -25 -17 -21 -17 0 c 0
 -17 23 -10 25 0 25 c 0
 118 25 238 -13 340 -75 c 0
 388 -105 387 -107 434 -77 c 0
347 -211 m 0
 245 -316 175 -462 175 -644 c 0
 175 -833 278 -975 389 -975 c 0
 498 -975 603 -838 603 -644 c 0
 603 -462 532 -315 428 -208 c 0
 403 -182 385 -173 347 -211 c 0
EndSplineSet
Fore
SplineSet
-19 0 m 0
 -19 17 -11 19 0 19 c 0
 143 19 262 -21 357 -84 c 0
 382 -101 399 -98 424 -82 c 0
 521 -19 639 19 778 19 c 0
 795 19 797 14 797 0 c 0
 797 -14 795 -19 778 -19 c 0
 649 -19 540 -53 450 -110 c 0
 429 -124 426 -137 445 -155 c 0
 589 -295 657 -493 657 -663 c 0
 657 -855 568 -1023 389 -1023 c 0
 312 -1023 251 -991 208 -941 c 0
 58 -769 101 -380 333 -155 c 0
 352 -136 349 -124 328 -110 c 0
 240 -54 132 -19 0 -19 c 0
 -13 -19 -19 -15 -19 0 c 0
364 -178 m 0
 140 -391 105 -762 235 -915 c 0
 272 -958 322 -985 389 -985 c 0
 537 -985 619 -848 619 -663 c 0
 619 -500 552 -309 413 -177 c 0
 397 -162 380 -162 364 -178 c 0
EndSplineSet
EndChar

StartChar: Eacute
Encoding: 201 201 11
Width: 778
Flags: W
HStem: -19 38<-18.9942 156.592 620.088 796.998> 985 38<301.981 474.904>
VStem: 619 38<513.766 799.422>
LayerCount: 2
Fore
SplineSet
-19 0 m 0
 -19 15 -13 19 0 19 c 0
 132 19 240 54 328 110 c 0
 349 124 352 136 333 155 c 0
 101 380 58 769 208 941 c 0
 251 991 312 1023 389 1023 c 0
 568 1023 657 855 657 663 c 0
 657 493 589 295 445 155 c 0
 426 137 429 124 450 110 c 0
 540 53 649 19 778 19 c 0
 795 19 797 14 797 0 c 0
 797 -14 795 -19 778 -19 c 0
 639 -19 521 19 424 82 c 0
 399 98 382 101 357 84 c 0
 262 21 143 -19 0 -19 c 0
 -11 -19 -19 -17 -19 0 c 0
364 178 m 0
 380 162 397 162 413 177 c 0
 552 309 619 500 619 663 c 0
 619 848 537 985 389 985 c 0
 322 985 272 958 235 915 c 0
 105 762 140 391 364 178 c 0
EndSplineSet
EndChar

StartChar: acircumflex
Encoding: 226 226 12
Width: 124
VWidth: 0
Flags: W
VStem: 3 118<-200 -80.007>
LayerCount: 2
Fore
SplineSet
129 -4 m 3
 129 27 121 34 99 35 c 0
 -274 45 -433 240 -491 326 c 0
 -508 351 -513 367 -523 367 c 3
 -527 367 -528 364 -528 358 c 0
 -528 348 -525 333 -520 316 c 0
 -496 226 -313 0 -77 -51 c 0
 -11 -66 3 -90 3 -156 c 2
 3 -219 l 25
 121 -219 l 17
 121 -200 l 2
 121 -182 129 -19 129 -4 c 3
EndSplineSet
EndChar

StartChar: space
Encoding: 32 32 13
Width: 214
VWidth: 0
Flags: HMW
HStem: 606 20G<193.5 198.5>
VStem: 0 33<-191.809 192.181>
LayerCount: 2
Back
SplineSet
38 0 m 7
 38 -434 177 -681 201 -727 c 4
 204 -732 205 -737 205 -742 c 4
 205 -750 201 -755 195 -755 c 4
 191 -755 186 -752 181 -744 c 4
 151 -692 0 -458 0 0 c 7
 0 459 151 692 181 744 c 4
 186 752 191 755 195 755 c 4
 201 755 205 750 205 742 c 4
 205 737 204 732 201 727 c 4
 177 681 38 435 38 0 c 7
EndSplineSet
Fore
SplineSet
0 0 m 0
 -1 432 160 708 190 760 c 5
 214 742 l 5
 191 696 44 424 45 0 c 0
 45 -424 191 -696 214 -742 c 1
 190 -760 l 1
 160 -708 0 -432 0 0 c 0
EndSplineSet
EndChar

StartChar: Agrave
Encoding: 192 192 14
Width: 980
Flags: W
HStem: -13 25<0 980> 237 25<0 980> 487 25<0 980> 737 25<0 980> 987 25<0 980>
LayerCount: 2
Fore
SplineSet
0 987 m 0
 0 1012 l 0
 980 1012 l 0
 980 987 l 0
 0 987 l 0
0 737 m 0
 0 762 l 0
 980 762 l 0
 980 737 l 0
 0 737 l 0
0 487 m 0
 0 512 l 0
 980 512 l 0
 980 487 l 0
 0 487 l 0
0 237 m 0
 0 262 l 0
 980 262 l 0
 980 237 l 0
 0 237 l 0
0 -13 m 0
 0 12 l 1
 980 12 l 1
 980 -13 l 0
 0 -13 l 0
EndSplineSet
EndChar

StartChar: Aacute
Encoding: 193 193 15
Width: 45
VWidth: 0
Flags: W
VStem: 0 45<-3 1020>
LayerCount: 2
Fore
SplineSet
45 -3 m 1
 0 -3 l 1
 0 1020 l 1
 45 1020 l 1
 45 -3 l 1
EndSplineSet
EndChar

StartChar: Acircumflex
Encoding: 194 194 16
Width: 45
VWidth: 0
Flags: W
HStem: 11 105<0 45> 190 105<0 45> 369 105<0 45> 548 105<0 45> 727 105<0 45> 907 105<0 45>
VStem: 0 45<11 116 190 295 369 474 548 653 727 832 907 1012>
LayerCount: 2
Fore
SplineSet
45 907 m 1
 0 907 l 1
 0 1012 l 1
 45 1012 l 1
 45 907 l 1
45 727 m 1
 0 727 l 1
 0 832 l 1
 45 832 l 1
 45 727 l 1
45 548 m 1
 0 548 l 1
 0 653 l 1
 45 653 l 1
 45 548 l 1
45 369 m 1
 0 369 l 1
 0 474 l 1
 45 474 l 1
 45 369 l 1
45 190 m 1
 0 190 l 1
 0 295 l 1
 45 295 l 1
 45 190 l 1
45 11 m 1
 0 11 l 1
 0 116 l 1
 45 116 l 1
 45 11 l 1
EndSplineSet
EndChar

StartChar: Atilde
Encoding: 195 195 17
Width: 434
VWidth: 0
Flags: W
HStem: -22 45<0 434>
LayerCount: 2
Fore
SplineSet
434 23 m 1
 434 -22 l 1
 0 -22 l 1
 0 23 l 1
 434 23 l 1
EndSplineSet
EndChar

StartChar: U
Encoding: 85 85 18
Width: 145
VWidth: 0
Flags: HMW
HStem: -385 30<30 135> 355 30<30 135>
VStem: 0 30<-355 355>
LayerCount: 2
Back
SplineSet
31 400 m 6xd0
 31 -400 l 6xd0
 31 -411 35 -417 47 -417 c 6
 131 -417 l 6
 144 -417 145 -418.5 145 -433 c 4
 145 -447.25 144 -448 133 -448 c 6
 15 -448 l 6
 2 -448 0 -446 0 -433 c 6
 0 433 l 6
 0 446 2 448 15 448 c 6
 133 448 l 6
 144 448 145 447 145 433 c 4xe0
 145 417.833 144 417 131 417 c 6
 47 417 l 6
 35 417 31 411 31 400 c 6xd0
EndSplineSet
Fore
SplineSet
30 407 m 2
 30 -406 l 2
 30 -412 37 -418 41 -418 c 2
 145 -418 l 1
 145 -448 l 1
 0 -448 l 1
 0 448 l 1
 145 448 l 1
 145 418 l 1
 41 418 l 2
 36 418 30 411 30 407 c 2
EndSplineSet
EndChar

StartChar: less
Encoding: 60 60 19
Width: 250
VWidth: 0
Flags: HMW
HStem: -125 20G<53 64>
VStem: 94 31<-66 66>
LayerCount: 2
Fore
SplineSet
125 -38 m 3
 202 -38 232 6 242 6 c 3
 246 6 250 6 250 0 c 3
 250 -18 197 -70 125 -70 c 3
 53 -70 0 -18 0 0 c 3
 0 6 4 6 8 6 c 3
 18 6 48 -38 125 -38 c 3
EndSplineSet
EndChar

StartChar: at
Encoding: 64 64 20
Width: 376
VWidth: 0
Flags: MW
HStem: 165 20G<279 291.5> 165 20G<279 291.5>
VStem: 188 34<-82.2314 82.2314>
LayerCount: 2
Fore
SplineSet
188 56 m 3xa0
 80 56 23 -8 7 -8 c 3
 2 -8 0 -7 0 0 c 3
 0 18 88 87 188 87 c 3
 288 87 376 18 376 0 c 3
 376 -7 374 -8 369 -8 c 3
 353 -8 296 56 188 56 c 3xa0
EndSplineSet
EndChar

StartChar: A
Encoding: 65 65 22
Width: 500
VWidth: 0
Flags: MW
HStem: 230 20G<364.5 376>
VStem: 250 36<-109.445 109.445>
LayerCount: 2
Fore
SplineSet
250 103 m 3
 390 103 500 17 500 0 c 3
 500 -6 497 -8 491 -8 c 3
 476 -8 400 72 250 72 c 3
 100 72 24 -8 9 -8 c 3
 3 -8 0 -6 0 0 c 3
 0 17 110 103 250 103 c 3
EndSplineSet
EndChar

StartChar: X
Encoding: 88 88 23
Width: 175
VWidth: 0
Flags: HMW
HStem: -635 30<30 165> 605 30<30 165>
VStem: 0 30<-605 605>
LayerCount: 2
Back
SplineSet
31 712 m 6
 31 -712 l 6
 31 -723 35 -729 47 -729 c 6
 161 -729 l 6
 174 -729 175 -730 175 -745 c 4
 175 -759 174 -760 163 -760 c 6
 15 -760 l 6
 2 -760 0 -758 0 -745 c 6
 0 745 l 6
 0 758 2 760 15 760 c 6
 163 760 l 6
 174 760 175 759 175 745 c 4
 175 730 174 729 161 729 c 6
 47 729 l 6
 35 729 31 723 31 712 c 6
EndSplineSet
Fore
SplineSet
30 719 m 2
 30 -718 l 2
 30 -724 37 -730 41 -730 c 2
 175 -730 l 5
 175 -760 l 5
 0 -760 l 1
 0 760 l 1
 175 760 l 1
 175 730 l 1
 41 730 l 2
 36 730 30 723 30 719 c 2
EndSplineSet
EndChar

StartChar: Y
Encoding: 89 89 24
Width: 185
VWidth: 0
Flags: HMW
HStem: -635 30<30 165> 605 30<30 165>
VStem: 0 30<-605 605>
LayerCount: 2
Back
SplineSet
31 837 m 6
 31 -837 l 6
 31 -848 35 -854 47 -854 c 6
 171 -854 l 6
 184 -854 185 -855 185 -870 c 4
 185 -884 184 -885 173 -885 c 6
 15 -885 l 6
 2 -885 0 -883 0 -870 c 6
 0 870 l 6
 0 883 2 885 15 885 c 6
 173 885 l 6
 184 885 185 884 185 870 c 4
 185 855 184 854 171 854 c 6
 47 854 l 6
 35 854 31 848 31 837 c 6
EndSplineSet
Fore
SplineSet
30 844 m 2
 30 -843 l 2
 30 -849 37 -855 41 -855 c 2
 185 -855 l 1
 185 -885 l 1
 0 -885 l 1
 0 885 l 1
 185 885 l 1
 185 855 l 1
 41 855 l 2
 36 855 30 848 30 844 c 2
EndSplineSet
EndChar

StartChar: Z
Encoding: 90 90 25
Width: 195
VWidth: 0
Flags: HMW
HStem: -635 30<30 165> 605 30<30 165>
VStem: 0 30<-605 605>
LayerCount: 2
Back
SplineSet
31 962 m 6
 31 -962 l 6
 31 -973 35 -979 47 -979 c 6
 181 -979 l 6
 194 -979 195 -980 195 -995 c 4
 195 -1009 194 -1010 183 -1010 c 6
 15 -1010 l 6
 2 -1010 0 -1008 0 -995 c 6
 0 995 l 6
 0 1008 2 1010 15 1010 c 6
 183 1010 l 6
 194 1010 195 1009 195 995 c 4
 195 980 194 979 181 979 c 6
 47 979 l 6
 35 979 31 973 31 962 c 6
EndSplineSet
Fore
SplineSet
30 969 m 2
 30 -968 l 2
 30 -974 37 -980 41 -980 c 2
 195 -980 l 5
 195 -1010 l 5
 0 -1010 l 1
 0 1010 l 1
 195 1010 l 1
 195 980 l 1
 41 980 l 2
 36 980 30 973 30 969 c 2
EndSplineSet
EndChar

StartChar: parenleft
Encoding: 40 40 26
Width: 74
VWidth: 0
Flags: HMW
VStem: 45 29<-68.8292 68.8292>
LayerCount: 2
Fore
SplineSet
45 0 m 4
 45 42 29 85 0 123 c 1
 14 136 l 1
 48 102 74 59 74 0 c 0
 74 -59 48 -102 14 -136 c 1
 0 -123 l 1
 29 -85 45 -42 45 0 c 4
EndSplineSet
EndChar

StartChar: parenright
Encoding: 41 41 27
Width: 96
VWidth: 0
Flags: HMW
HStem: -260 20G<-10 -4.5>
VStem: 63 33<-109.845 109.403>
LayerCount: 2
Fore
SplineSet
96 0 m 0
 97 -87 56 -154 14 -200 c 1
 0 -186 l 1
 33 -144 66 -83 65 0 c 4
 65 83 33 144 0 186 c 1
 14 200 l 1
 56 154 96 87 96 0 c 0
EndSplineSet
EndChar

StartChar: asterisk
Encoding: 42 42 28
Width: 121
VWidth: 0
Flags: HW
VStem: 88 33<-111.137 111.137>
LayerCount: 2
Fore
SplineSet
88 0 m 0
 88 128 29 209 0 252 c 1
 16 267 l 1
 60 222 121 135 121 0 c 0
 122 -135 60 -222 16 -267 c 5
 0 -252 l 5
 29 -209 89 -128 88 0 c 0
EndSplineSet
EndChar

StartChar: plus
Encoding: 43 43 29
Width: 132
VWidth: 0
Flags: HW
VStem: 97 35<-137.224 133.39>
LayerCount: 2
Fore
SplineSet
97 0 m 4
 97 144 45 244 0 312 c 1
 17 328 l 1
 63 273 132 163 132 0 c 0
 133 -163 63 -273 17 -328 c 1
 0 -312 l 1
 45 -244 98 -144 97 0 c 4
EndSplineSet
EndChar

StartChar: comma
Encoding: 44 44 30
Width: 146
VWidth: 0
Flags: HW
HStem: -396 20G<0 45.5>
VStem: 109 37<-158.192 154.397>
LayerCount: 2
Fore
SplineSet
146 1 m 0
 147 -187 73 -330 18 -396 c 1
 0 -378 l 1
 55 -290 110 -185 109 1 c 0
 109 185 55 290 0 378 c 1
 18 396 l 1
 73 330 146 187 146 1 c 0
EndSplineSet
EndChar

StartChar: uni001C
Encoding: 28 28 31
Width: 146
VWidth: 0
Flags: W
HStem: 376 20G<100.5 146>
VStem: 0 37<-154.397 158.192>
LayerCount: 2
Back
SplineSet
0 1 m 4
 0 187 77 331 114 378 c 4
 120 385 126 388 130 388 c 4
 136 388 140 384 140 377 c 4
 140 373 138 367 134 361 c 4
 108 318 34 185 34 1 c 4
 34 -182 108 -316 134 -359 c 4
 138 -365 140 -371 140 -375 c 4
 140 -382 136 -386 130 -386 c 4
 126 -386 120 -383 114 -376 c 4
 77 -329 0 -184 0 1 c 4
EndSplineSet
Fore
SplineSet
0 -1 m 0
 -1 187 73 330 128 396 c 1
 146 378 l 1
 91 290 36 185 37 -1 c 0
 37 -185 91 -290 146 -378 c 1
 128 -396 l 1
 73 -330 0 -187 0 -1 c 0
EndSplineSet
EndChar

StartChar: uni001D
Encoding: 29 29 32
Width: 167
VWidth: 0
Flags: W
HStem: 433 20G<123 167>
VStem: 0 39<-173.39 173.39>
LayerCount: 2
Back
SplineSet
35 0 m 0
 35 -233 127 -372 154 -417 c 0
 158 -424 160 -430 160 -435 c 0
 160 -442 156 -445 151 -445 c 0
 146 -445 140 -442 134 -434 c 0
 99 -382 0 -243 0 0 c 0
 0 243 99 382 134 434 c 0
 140 442 146 445 151 445 c 0
 156 445 160 442 160 435 c 0
 160 430 158 424 154 417 c 0
 127 372 35 233 35 0 c 0
EndSplineSet
Fore
SplineSet
0 0 m 0
 -1 243 100 389 146 453 c 1
 167 436 l 1
 121 366 38 233 39 0 c 4
 39 -233 121 -366 167 -436 c 1
 146 -453 l 1
 100 -389 0 -243 0 0 c 0
EndSplineSet
EndChar

StartChar: uni001E
Encoding: 30 30 33
Width: 178
VWidth: 0
Flags: W
VStem: 0 41<-191.195 191.195>
LayerCount: 2
Back
SplineSet
36 0 m 7
 36 -267 139 -435 165 -480 c 4
 169 -487 171 -493 171 -498 c 4
 171 -505 167 -508 162 -508 c 4
 157 -508 150 -505 145 -497 c 4
 112 -445 0 -286 0 0 c 4
 0 287 112 445 145 497 c 4
 150 505 157 508 162 508 c 4
 167 508 171 505 171 498 c 4
 171 493 169 487 165 480 c 4
 139 435 36 268 36 0 c 7
EndSplineSet
Fore
SplineSet
41 0 m 4
 40 268 138 429 178 498 c 1
 156 516 l 1
 110 444 -1 267 0 0 c 0
 0 -267 110 -444 156 -516 c 1
 178 -498 l 1
 138 -429 41 -268 41 0 c 4
EndSplineSet
EndChar

StartChar: uni001F
Encoding: 31 31 34
Width: 196
VWidth: 0
Flags: W
HStem: 610 20G<156.5 196>
VStem: 0 43<-198.502 198.502>
LayerCount: 2
Back
SplineSet
37 0 m 7
 37 -354 160 -552 184 -598 c 4
 187 -603 188 -608 188 -613 c 4
 188 -621 184 -626 178 -626 c 4
 174 -626 169 -623 164 -615 c 4
 133 -563 0 -379 0 0 c 7
 0 380 133 563 164 615 c 4
 169 623 174 626 178 626 c 4
 184 626 188 621 188 613 c 4
 188 608 187 603 184 598 c 4
 160 552 37 355 37 0 c 7
EndSplineSet
Fore
SplineSet
0 0 m 0
 -1 352 141 578 172 630 c 1
 196 614 l 1
 172 568 42 355 43 0 c 4
 43 -355 172 -568 196 -614 c 1
 172 -630 l 1
 141 -578 0 -352 0 0 c 0
EndSplineSet
EndChar

StartChar: exclam
Encoding: 33 33 35
Width: 274
VWidth: 0
Flags: HMW
HStem: 606 20G<193.5 198.5>
VStem: 0 33<-191.809 192.181>
LayerCount: 2
Back
SplineSet
40 0 m 7
 40 -500 235 -816 262 -863 c 4
 264 -867 265 -871 265 -875 c 4
 265 -884 261 -890 255 -890 c 4
 251 -890 246 -887 242 -880 c 4
 212 -827 0 -522 0 0 c 7
 0 523 212 827 242 880 c 4
 246 887 251 890 255 890 c 4
 261 890 265 884 265 875 c 4
 265 871 264 867 262 863 c 4
 235 816 40 501 40 0 c 7
EndSplineSet
Fore
SplineSet
46 0 m 0
 45 466 235 813 274 878 c 5
 250 896 l 5
 210 826 -1 500 0 0 c 0
 0 -500 210 -826 250 -896 c 1
 274 -878 l 1
 235 -813 46 -466 46 0 c 0
EndSplineSet
EndChar

StartChar: quotedbl
Encoding: 34 34 36
Width: 302
VWidth: 0
Flags: HMW
HStem: 606 20G<193.5 198.5>
VStem: 0 33<-191.809 192.181>
LayerCount: 2
Back
SplineSet
41 0 m 7
 41 -572 261 -932 288 -979 c 4
 290 -983 291 -987 291 -991 c 4
 291 -1000 287 -1006 281 -1006 c 4
 277 -1006 272 -1003 268 -996 c 4
 238 -943 0 -596 0 0 c 7
 0 597 238 943 268 996 c 4
 272 1003 277 1006 281 1006 c 4
 287 1006 291 1000 291 991 c 4
 291 987 290 983 288 979 c 4
 261 932 41 573 41 0 c 7
EndSplineSet
Fore
SplineSet
47 0 m 0
 46 573 274 944 302 994 c 5
 277 1012 l 5
 245 954 -1 597 0 0 c 0
 0 -597 245 -954 277 -1012 c 1
 302 -994 l 1
 274 -944 47 -573 47 0 c 0
EndSplineSet
EndChar

StartChar: numbersign
Encoding: 35 35 37
Width: 332
VWidth: 0
Flags: HMW
HStem: 606 20G<193.5 198.5>
VStem: 0 33<-191.809 192.181>
LayerCount: 2
Back
SplineSet
42 0 m 7
 42 -652 291 -1061 318 -1108 c 4
 320 -1112 321 -1116 321 -1120 c 4
 321 -1129 317 -1135 311 -1135 c 4
 307 -1135 302 -1132 298 -1125 c 4
 268 -1072 0 -672 0 0 c 7
 0 673 268 1072 298 1125 c 4
 302 1132 307 1135 311 1135 c 4
 317 1135 321 1129 321 1120 c 4
 321 1116 320 1112 318 1108 c 4
 291 1061 42 653 42 0 c 7
EndSplineSet
Fore
SplineSet
0 0 m 0
 -1 673 276 1086 306 1140 c 1
 332 1120 l 1
 305 1074 47 653 48 0 c 0
 48 -653 305 -1074 332 -1120 c 1
 306 -1140 l 1
 276 -1086 0 -673 0 0 c 0
EndSplineSet
EndChar

StartChar: uni0019
Encoding: 25 25 38
Width: 96
VWidth: 0
Flags: HMW
HStem: 240 20G<100.5 106>
VStem: 0 33<-109.403 109.845>
LayerCount: 2
Back
SplineSet
30 0 m 4
 30 -83 59 -127 85 -168 c 4
 89 -174 91 -180 91 -184 c 4
 91 -191 87 -195 82 -195 c 4
 78 -195 72 -192 66 -185 c 4
 32 -145 0 -87 0 0 c 4
 0 87 32 145 66 185 c 4
 72 192 78 195 82 195 c 4
 87 195 91 191 91 184 c 4
 91 180 89 174 85 168 c 4
 59 127 30 83 30 0 c 4
EndSplineSet
Fore
SplineSet
0 0 m 0
 -1 87 40 154 82 200 c 1
 96 186 l 1
 63 144 30 83 31 0 c 4
 31 -83 63 -144 96 -186 c 1
 82 -200 l 1
 40 -154 0 -87 0 0 c 0
EndSplineSet
EndChar

StartChar: uni000E
Encoding: 14 14 39
Width: 480
VWidth: -9
Flags: W
HStem: 0 119<7 86.5> 146 20G<52.5 54.5 458 463>
LayerCount: 2
Fore
SplineSet
472 475 m 0
 478 469 480 465 480 461 c 0
 480 455 475 449 465 439 c 2
 132 106 l 0
 122 96 118 89 118 84 c 0
 118 67 155 68 167 56 c 0
 168 55 168 54 168 52 c 0
 168 50 168 49 166 47 c 0
 159 40 146 41 80 23 c 0
 36 11 17 0 8 0 c 0
 6 0 4 1 3 2 c 0
 1 5 0 7 0 10 c 0
 0 20 11 37 24 80 c 0
 41 140 40 156 49 164 c 0
 50 166 52 166 53 166 c 0
 56 166 58 164 59 164 c 0
 72 151 70 119 84 119 c 0
 89 119 95 123 105 133 c 0
 438 466 l 2
 448 476 455 480 461 480 c 0
 465 480 468 479 472 475 c 0
EndSplineSet
EndChar

StartChar: B
Encoding: 66 66 40
Width: 750
VWidth: 0
Flags: HMW
HStem: 355 20G<524.5 544>
VStem: 375 44<-156.5 156.707>
LayerCount: 2
Fore
SplineSet
375 94 m 3
 140 94 31 -10 9 -10 c 3
 4 -10 0 -9 0 -1 c 3
 0 24 165 125 375 125 c 3
 585 125 750 24 750 -1 c 3
 750 -9 746 -10 741 -10 c 3
 719 -10 610 94 375 94 c 3
EndSplineSet
EndChar

StartChar: C
Encoding: 67 67 41
Width: 1000
VWidth: 0
Flags: HMW
HStem: 480 20G<691 706.5>
VStem: 500 48<-182.063 182.45>
LayerCount: 2
Fore
SplineSet
500 115 m 3
 200 115 29 -8 8 -8 c 3
 1 -8 0 -5 0 0 c 3
 0 21 220 146 500 146 c 3
 780 146 1000 21 1000 0 c 3
 1000 -5 999 -8 992 -8 c 3
 971 -8 800 115 500 115 c 3
EndSplineSet
EndChar

StartChar: E
Encoding: 69 69 42
Width: 500
VWidth: 0
Flags: HMW
HStem: -250 20G<124 136>
VStem: 214 36<-109 109>
LayerCount: 2
Fore
SplineSet
250 -103 m 3
 110 -103 0 -17 0 0 c 3
 0 6 3 8 9 8 c 3
 24 8 100 -72 250 -72 c 3
 400 -72 476 8 491 8 c 3
 497 8 500 6 500 0 c 3
 500 -17 390 -103 250 -103 c 3
EndSplineSet
EndChar

StartChar: D
Encoding: 68 68 43
Width: 376
VWidth: 0
Flags: HMW
HStem: -185 20G<84 97> -185 20G<84 97>
VStem: 154 34<-82 82>
LayerCount: 2
Fore
SplineSet
188 -56 m 3xa0
 296 -56 353 8 369 8 c 3
 374 8 376 7 376 0 c 3
 376 -18 288 -87 188 -87 c 3
 88 -87 0 -18 0 0 c 3
 0 7 2 8 7 8 c 3
 23 8 80 -56 188 -56 c 3xa0
EndSplineSet
EndChar

StartChar: F
Encoding: 70 70 44
Width: 750
VWidth: 0
Flags: HMW
HStem: -375 20G<206 226>
VStem: 331 44<-157 157>
LayerCount: 2
Fore
SplineSet
375 -94 m 3
 610 -94 719 10 741 10 c 3
 746 10 750 9 750 1 c 3
 750 -24 585 -125 375 -125 c 3
 165 -125 0 -24 0 1 c 3
 0 9 4 10 9 10 c 3
 31 10 140 -94 375 -94 c 3
EndSplineSet
EndChar

StartChar: uni02B9
Encoding: 697 697 45
Width: 175
VWidth: 230
Flags: MW
LayerCount: 2
Fore
SplineSet
0 -134 m 2
 0 596 l 2
 0 610 6 620 21 620 c 2
 201 620 l 2
 220 620 225 613 225 603 c 0
 225 587 217 585 192 585 c 2
 59 585 l 2
 39 585 35 583 35 562 c 2
 35 -95 l 2
 35 -119 37 -125 57 -125 c 2
 201 -125 l 2
 220 -125 225 -130 225 -142 c 0
 225 -156 217 -160 192 -160 c 2
 24 -160 l 2
 10 -160 0 -154 0 -134 c 2
EndSplineSet
EndChar

StartChar: uni02BA
Encoding: 698 698 46
Width: 175
VWidth: 230
Flags: MW
LayerCount: 2
Fore
SplineSet
175 -134 m 2
 175 596 l 2
 175 610 169 620 154 620 c 2
 -26 620 l 2
 -45 620 -50 613 -50 603 c 0
 -50 587 -42 585 -17 585 c 2
 116 585 l 2
 136 585 140 583 140 562 c 2
 140 -95 l 2
 140 -119 138 -125 118 -125 c 2
 -26 -125 l 2
 -45 -125 -50 -130 -50 -142 c 0
 -50 -156 -42 -160 -17 -160 c 2
 151 -160 l 2
 165 -160 175 -154 175 -134 c 2
EndSplineSet
EndChar

StartChar: uni02BB
Encoding: 699 699 47
Width: 0
VWidth: 230
Flags: MW
LayerCount: 2
Fore
SplineSet
556 -125 m 2
 575 -125 580 -132 580 -142 c 0
 580 -158 573 -160 547 -160 c 2
 -17 -160 l 2
 -42 -160 -50 -158 -50 -142 c 0
 -50 -132 -45 -125 -26 -125 c 2
 556 -125 l 2
556 620 m 2
 575 620 580 613 580 603 c 0
 580 587 573 585 547 585 c 2
 -17 585 l 2
 -42 585 -50 587 -50 603 c 0
 -50 613 -45 620 -26 620 c 2
 556 620 l 2
EndSplineSet
EndChar

StartChar: equal
Encoding: 61 61 48
Width: 376
VWidth: 0
Flags: HMW
HStem: -185 20G<84 97> -185 20G<84 97>
VStem: 154 34<-82 82>
LayerCount: 2
Fore
SplineSet
188 -66 m 3xa0
 303 -66 353 8 369 8 c 3
 374 8 376 7 376 0 c 3
 376 -18 296 -100 188 -100 c 3
 80 -100 0 -18 0 0 c 3
 0 7 2 8 7 8 c 3
 23 8 73 -66 188 -66 c 3xa0
EndSplineSet
EndChar

StartChar: bracketleft
Encoding: 91 91 49
Width: 205
VWidth: 0
Flags: HMW
HStem: -635 30<30 165> 605 30<30 165>
VStem: 0 30<-605 605>
LayerCount: 2
Back
SplineSet
31 1087 m 6
 31 -1087 l 6
 31 -1098 35 -1104 47 -1104 c 6
 191 -1104 l 6
 204 -1104 205 -1105 205 -1120 c 4
 205 -1134 204 -1135 193 -1135 c 6
 15 -1135 l 6
 2 -1135 0 -1133 0 -1120 c 6
 0 1120 l 6
 0 1133 2 1135 15 1135 c 6
 193 1135 l 6
 204 1135 205 1134 205 1120 c 4
 205 1105 204 1104 191 1104 c 6
 47 1104 l 6
 35 1104 31 1098 31 1087 c 6
EndSplineSet
Fore
SplineSet
30 1094 m 2
 30 -1093 l 2
 30 -1099 37 -1105 41 -1105 c 2
 205 -1105 l 1
 205 -1135 l 1
 0 -1135 l 1
 0 1135 l 1
 205 1135 l 1
 205 1105 l 1
 41 1105 l 2
 36 1105 30 1098 30 1094 c 2
EndSplineSet
EndChar

StartChar: G
Encoding: 71 71 50
Width: 1000
VWidth: 0
Flags: W
HStem: -146 31<335.737 664.263>
LayerCount: 2
Fore
SplineSet
500 -115 m 3
 800 -115 971 8 992 8 c 3
 999 8 1000 5 1000 0 c 3
 1000 -21 780 -146 500 -146 c 3
 220 -146 0 -21 0 0 c 3
 0 5 1 8 8 8 c 3
 29 8 200 -115 500 -115 c 3
EndSplineSet
EndChar

StartChar: uni0001
Encoding: 1 1 51
Width: 512
VWidth: 0
Flags: W
HStem: 394 21G<516.5 520> 585 20G<174.5 190.611 282.5 298.611 919.5 929.5>
VStem: 166 37<12.0059 604.982> 274 37<33.0059 873.982>
LayerCount: 2
Fore
SplineSet
166 45 m 2
 166 568 l 2
 166 604 167 605 182 605 c 3
 199.222 605 203 604.406 203 560 c 2
 203 36 l 2
 203 17 200 12 185 12 c 3
 164.279 12 166 19.9727 166 45 c 2
529 397 m 2
 525 394 521 394 519 394 c 0
 514 394 506 410 506 415 c 0
 506 421 511 426 520 432 c 0
 614.953 495.149 834 643 834 643 c 2
 912.938 696.044 912 696 927 696 c 0
 932 696 941 687 941 678 c 3
 941 667 920 657 886 634 c 2
 529 397 l 2
274 66 m 6
 274 837 l 6
 274 873 275 874 290 874 c 7
 307.222 874 311 873.406 311 829 c 6
 311 57 l 6
 311 38 308 33 293 33 c 7
 272.279 33 274 40.9731 274 66 c 6
EndSplineSet
EndChar

StartChar: uni0002
Encoding: 2 2 52
Width: 512
VWidth: 0
Flags: W
HStem: 0 35<-184.996 184.994> 165 20G<9 24.5 282.5 298.611>
VStem: 0 35<-184.994 184.996> 274 37<33.0059 873.982>
LayerCount: 2
Fore
SplineSet
152 0 m 2
 -148 0 l 2
 -184 0 -185 2 -185 16 c 3
 -185 33 -184 35 -140 35 c 2
 161 35 l 2
 180 35 185 33 185 18 c 3
 185 -3 177 0 152 0 c 2
0 -152 m 2
 0 148 l 2
 0 184 2 185 16 185 c 3
 33 185 35 184 35 140 c 2
 35 -161 l 2
 35 -180 33 -185 18 -185 c 3
 -3 -185 0 -177 0 -152 c 2
274 66 m 6
 274 837 l 6
 274 873 275 874 290 874 c 7
 307.222 874 311 873.406 311 829 c 6
 311 57 l 6
 311 38 308 33 293 33 c 7
 272.279 33 274 40.9731 274 66 c 6
EndSplineSet
EndChar

StartChar: uni0003
Encoding: 3 3 53
Width: 690
VWidth: -9
Flags: HW
HStem: 141 341G<39 47 183 193 210.5 216.5 570 608> 197 439G<113 125 408 415.5 583 595> 399 26<68 110> 510 20<82 134>
VStem: 68 42<-170.994 425> 360 38<405 429.461> 570 38<369.439 413.461>
LayerCount: 2
Fore
SplineSet
242 127 m 0x0e
 236 125 219 120 214 120 c 0
 207 120 204 124 204 139 c 0
 204 146 208 153 226 159 c 0
 248 166 378 208 384 210 c 0
 388 211 405 217 411 217 c 0
 420 217 422 208 422 202 c 3
 422 192 420 184 398 177 c 0
 376 170 253 130 242 127 c 0x0e
608 369 m 9
 570 369 l 17
 570 381 570 236 570 389 c 0
 570 446 532 400 510 400 c 0
 508 400 504 402 504 407 c 0
 504 417 514 426 548 485 c 0
 576 534 578 554 588 554 c 0
 602 554 600 535 628 484 c 0
 658 430 670 419 670 407 c 0
 670 401 664 400 662 400 c 0
 638 400 608 443 608 389 c 0
 608 285 608 380 608 369 c 9
398 328 m 17
 398 358 398 301 398 405 c 0
 398 459 428 416 452 416 c 0
 454 416 460 417 460 423 c 0
 460 435 448 446 418 500 c 0
 390 551 392 570 378 570 c 0
 368 570 366 550 338 501 c 0
 304 442 294 433 294 423 c 0
 294 418 298 416 300 416 c 0
 322 416 360 462 360 405 c 0
 360 252 360 358 360 328 c 9
 398 328 l 17
614 611 m 4
 614 605 608 604 606 604 c 7
 588 604 566 632 530 632 c 7
 496 632 468 604 454 604 c 7x9e
 452 604 448 606 448 611 c 4
 448 621 458 630 492 689 c 4
 520 738 522 758 532 758 c 4x4e
 546 758 542 739 572 688 c 4
 604 635 614 623 614 611 c 4
142 456 m 2
 155 434 161 421 161 413 c 0
 161 401 147 399 114 399 c 2
 67 399 l 2x3e
 34 399 20 400 20 411 c 0
 20 418 27 431 40 453 c 2
 64 496 l 2
 76 517 82 530 90 530 c 0
 96 530 104 521 118 498 c 2
 142 456 l 2
110 425 m 1
 110 -147 l 2
 110 -169 106 -171 90 -171 c 0
 73 -171 68 -169 68 -146 c 2
 68 425 l 1
 110 425 l 1
EndSplineSet
EndChar

StartChar: uni0008
Encoding: 8 8 54
Width: 167
VWidth: -9
Flags: W
HStem: 0 21G<-8 8>
VStem: -19 38<0.0236206 525.461>
LayerCount: 2
Fore
SplineSet
1 0 m 4
 -17 0 -19 7 -19 30 c 6
 -19 501 l 4
 -19 558 -57 512 -79 512 c 4
 -81 512 -85 514 -85 519 c 4
 -85 529 -75 538 -41 597 c 4
 -13 646 -11 666 -1 666 c 4
 13 666 11 647 39 596 c 4
 69 542 81 531 81 519 c 4
 81 513 75 512 73 512 c 4
 49 512 19 555 19 501 c 4
 19 30 l 6
 19 8 15 0 1 0 c 4
EndSplineSet
EndChar

StartChar: uni0009
Encoding: 9 9 55
Width: 166
VWidth: -9
Flags: W
HStem: 0 21G<77 93>
VStem: 66 38<0.0236206 525.461>
LayerCount: 2
Fore
SplineSet
86 0 m 0
 68 0 66 7 66 30 c 2
 66 501 l 0
 66 558 28 512 6 512 c 0
 4 512 0 514 0 519 c 0
 0 529 10 538 44 597 c 0
 72 646 74 666 84 666 c 0
 98 666 96 647 124 596 c 0
 154 542 166 531 166 519 c 0
 166 513 160 512 158 512 c 0
 134 512 104 555 104 501 c 0
 104 30 l 2
 104 8 100 0 86 0 c 0
EndSplineSet
EndChar

StartChar: uni000A
Encoding: 10 10 56
Width: 166
VWidth: -9
Flags: W
HStem: 0 21G<75 87>
VStem: 62 38<140.539 665.976>
LayerCount: 2
Fore
SplineSet
80 666 m 0
 98 666 100 659 100 636 c 2
 100 165 l 0
 100 108 138 154 160 154 c 0
 162 154 166 152 166 147 c 0
 166 137 156 128 122 69 c 0
 94 20 92 0 82 0 c 0
 68 0 70 19 42 70 c 0
 12 124 0 135 0 147 c 0
 0 153 6 154 8 154 c 0
 32 154 62 111 62 165 c 0
 62 636 l 2
 62 658 66 666 80 666 c 0
EndSplineSet
EndChar

StartChar: uni000B
Encoding: 11 11 57
Width: 666
VWidth: -9
Flags: W
HStem: 0 21G<516 525> 62 38<0.0236206 525.461>
LayerCount: 2
Fore
SplineSet
0 80 m 0
 0 98 7 100 30 100 c 2
 501 100 l 0
 558 100 512 138 512 160 c 0
 512 162 514 166 519 166 c 0
 529 166 538 156 597 122 c 0
 646 94 666 92 666 82 c 0
 666 68 647 70 596 42 c 0
 542 12 531 0 519 0 c 0
 513 0 512 6 512 8 c 0
 512 32 555 62 501 62 c 0
 30 62 l 2
 8 62 0 66 0 80 c 0
EndSplineSet
EndChar

StartChar: uni000C
Encoding: 12 12 58
Width: 666
VWidth: -9
Flags: W
HStem: 66 38<140.539 665.976> 146 20G<141 150>
LayerCount: 2
Fore
SplineSet
666 86 m 0
 666 68 659 66 636 66 c 2
 165 66 l 0
 108 66 154 28 154 6 c 0
 154 4 152 0 147 0 c 0
 137 0 128 10 69 44 c 0
 20 72 0 74 0 84 c 0
 0 98 19 96 70 124 c 0
 124 154 135 166 147 166 c 0
 153 166 154 160 154 158 c 0
 154 134 111 104 165 104 c 0
 636 104 l 2
 658 104 666 100 666 86 c 0
EndSplineSet
EndChar

StartChar: uni000D
Encoding: 13 13 59
Width: 480
VWidth: -9
Flags: W
HStem: 0 21G<17 22> 361 119<393.5 473>
LayerCount: 2
Fore
SplineSet
8 5 m 0
 2 11 0 15 0 19 c 0
 0 25 5 31 15 41 c 2
 348 374 l 0
 358 384 362 391 362 396 c 0
 362 413 325 412 313 424 c 0
 312 425 312 426 312 428 c 0
 312 430 312 431 314 433 c 0
 321 440 334 439 400 457 c 0
 444 469 463 480 472 480 c 0
 474 480 476 479 477 478 c 0
 479 475 480 473 480 470 c 0
 480 460 469 443 456 400 c 0
 439 340 440 324 431 316 c 0
 430 314 428 314 427 314 c 0
 424 314 422 316 421 316 c 0
 408 329 410 361 396 361 c 0
 391 361 385 357 375 347 c 0
 42 14 l 2
 32 4 25 0 19 0 c 0
 15 0 12 1 8 5 c 0
EndSplineSet
EndChar

StartChar: uni000F
Encoding: 15 15 60
Width: 481
VWidth: -9
Flags: W
HStem: 460 20G<17.5 23 428 430>
VStem: 362 119<7 86.5>
LayerCount: 2
Fore
SplineSet
6 472 m 0
 11 477 15 480 20 480 c 0
 26 480 32 474 42 465 c 2
 375 132 l 0
 385 122 392 118 397 118 c 0
 413 118 413 155 425 167 c 0
 426 168 427 168 429 168 c 0
 431 168 433 168 434 166 c 0
 441 159 440 146 458 80 c 0
 470 36 481 17 481 8 c 0
 481 6 480 4 479 3 c 0
 477 1 474 0 472 0 c 0
 461 0 444 12 401 24 c 0
 341 41 325 40 317 49 c 0
 315 50 315 52 315 54 c 0
 315 56 316 58 317 59 c 0
 330 72 362 70 362 84 c 0
 362 89 358 95 348 105 c 0
 15 438 l 2
 5 448 0 455 0 461 c 0
 0 465 2 468 6 472 c 0
EndSplineSet
EndChar

StartChar: uni0010
Encoding: 16 16 61
Width: 480
VWidth: -9
Flags: W
HStem: 312 21G<51 53> 460 20G<8.5 15>
VStem: 0 119<393.5 473>
LayerCount: 2
Fore
SplineSet
475 8 m 0
 469 2 465 0 461 0 c 0
 455 0 449 5 439 15 c 2
 106 348 l 0
 96 358 89 362 84 362 c 0
 67 362 68 325 56 313 c 0
 55 312 54 312 52 312 c 0
 50 312 49 312 47 314 c 0
 40 321 41 334 23 400 c 0
 11 444 0 463 0 472 c 0
 0 474 1 476 2 477 c 0
 5 479 7 480 10 480 c 0
 20 480 37 469 80 456 c 0
 140 439 156 440 164 431 c 0
 166 430 166 428 166 427 c 0
 166 424 164 422 164 421 c 0
 151 408 119 410 119 396 c 0
 119 391 123 385 133 375 c 0
 466 42 l 2
 476 32 480 25 480 19 c 0
 480 15 479 12 475 8 c 0
EndSplineSet
EndChar

StartChar: uni0018
Encoding: 24 24 62
Width: 74
VWidth: 0
Flags: W
VStem: 0 29<-68.8292 68.8292>
LayerCount: 2
Back
SplineSet
29 0 m 4
 29 -42 44 -79 63 -106 c 4
 66 -111 68 -116 68 -120 c 4
 68 -126 65 -130 60 -130 c 4
 56 -130 52 -128 47 -122 c 4
 25 -98 0 -59 0 0 c 4
 0 59 25 98 47 122 c 4
 52 128 56 130 60 130 c 4
 65 130 68 126 68 120 c 4
 68 116 66 111 63 106 c 4
 44 79 29 42 29 0 c 4
EndSplineSet
Fore
SplineSet
29 0 m 4
 29 42 45 85 74 123 c 1
 60 136 l 1
 26 102 0 59 0 0 c 0
 0 -59 26 -102 60 -136 c 1
 74 -123 l 1
 45 -85 29 -42 29 0 c 4
EndSplineSet
EndChar

StartChar: uni001A
Encoding: 26 26 63
Width: 121
VWidth: 0
Flags: HW
VStem: 0 33<-111.137 111.137>
LayerCount: 2
Back
SplineSet
32 0 m 4
 32 -113 78 -184 107 -229 c 4
 112 -236 114 -242 114 -247 c 4
 114 -255 109 -260 103 -260 c 4
 98 -260 92 -256 86 -248 c 4
 53 -208 0 -123 0 0 c 4
 0 124 53 208 86 248 c 4
 92 256 98 260 103 260 c 4
 109 260 114 255 114 247 c 4
 114 242 112 236 107 229 c 4
 78 184 32 114 32 0 c 4
EndSplineSet
Fore
SplineSet
33 0 m 0
 32 128 92 209 121 252 c 5
 105 267 l 5
 61 222 -1 135 0 0 c 0
 0 -135 61 -222 105 -267 c 1
 121 -252 l 1
 92 -209 33 -128 33 0 c 0
EndSplineSet
EndChar

StartChar: uni001B
Encoding: 27 27 64
Width: 132
VWidth: 0
Flags: W
VStem: 0 35<-133.39 137.224>
LayerCount: 2
Back
SplineSet
33 0 m 4
 33 -159 80 -230 122 -296 c 4
 125 -301 127 -306 127 -309 c 4
 127 -316 122 -319 116 -319 c 4
 111 -319 105 -317 100 -310 c 4
 69 -271 0 -179 0 0 c 4
 0 180 69 271 100 310 c 4
 105 317 111 319 116 319 c 4
 122 319 127 316 127 309 c 4
 127 306 125 301 122 296 c 4
 80 230 33 160 33 0 c 4
EndSplineSet
Fore
SplineSet
35 0 m 4
 34 144 87 244 132 312 c 1
 115 328 l 1
 69 273 -1 163 0 0 c 0
 0 -163 69 -273 115 -328 c 1
 132 -312 l 1
 87 -244 35 -144 35 0 c 4
EndSplineSet
EndChar

StartChar: Eth
Encoding: 208 208 65
Width: 996
VWidth: 0
Flags: W
LayerCount: 2
Fore
SplineSet
259 1505 m 0
 290 1552 289 1552 291 1532 c 0
 293 1519 286 1501 272 1470 c 0
 185 1291 147 1146 145 985 c 0
 145 858 155 800 235 518 c 0
 264 418 274 374 279 312 c 0
 286 240 264 129 230 49 c 0
 197 -23 127 -134 85 -179 c 0
 69 -195 69 -200 78 -213 c 2
 87 -227 l 1
 69 -227 l 2
 56 -227 47 -220 40 -211 c 2
 27 -200 l 1
 56 -164 l 2
 174 -19 212 139 172 306 c 0
 159 362 139 433 110 527 c 0
 90 598 67 692 60 748 c 0
 47 828 49 974 63 1045 c 0
 81 1125 83 1131 105 1193 c 0
 147 1309 192 1402 259 1505 c 0
EndSplineSet
EndChar

StartChar: Ntilde
Encoding: 209 209 66
Width: 272
VWidth: 0
Flags: W
VStem: 6 43<-33.4246 31.4183> 25 94<-1278.68 -979.981 979.981 1278.68> 161 93<-535.926 -331.012 332.08 535.926>
LayerCount: 2
Fore
SplineSet
66 28 m 4xa0
 156 135 254 296 254 483 c 7
 254 669 119 902 119 1185 c 7
 119 1362 175 1546 264 1704 c 4
 270 1714 272 1723 272 1729 c 4
 272 1735 270 1739 266 1739 c 4
 260 1739 252 1734 242 1719 c 4
 197 1656 25 1397 25 1085 c 7x60
 25 788 161 586 161 380 c 7
 161 229 101 127 20 25 c 4
 11 13 6 6 6 -0 c 4xa0
 6 -7 11 -13 19 -24 c 4
 102 -126 161 -229 161 -380 c 7
 161 -586 25 -788 25 -1085 c 7
 25 -1397 197 -1656 242 -1719 c 4
 252 -1734 260 -1739 266 -1739 c 4
 270 -1739 272 -1735 272 -1729 c 4
 272 -1723 270 -1714 264 -1704 c 4
 175 -1546 119 -1362 119 -1185 c 7x60
 119 -902 254 -669 254 -483 c 7
 254 -293 151 -131 61 -23 c 4
 52 -12 49 -5 49 1 c 4
 49 10 56 17 66 28 c 4xa0
EndSplineSet
EndChar

StartChar: Ograve
Encoding: 210 210 67
Width: 270
VWidth: 0
Flags: W
VStem: 0 43<-31.4183 31.4183> 19 94<-1278.79 -979.981 979.981 1278.79> 155 93<-535.926 -332.08 332.08 535.926>
LayerCount: 2
Fore
SplineSet
0 0 m 0xa0
 0 7 5 13 14 25 c 0
 95 127 155 229 155 380 c 3
 155 586 19 788 19 1085 c 3
 19 1397 187 1656 232 1719 c 0
 241 1732 251 1738 259 1738 c 4
 265 1738 270 1733 270 1725 c 0
 270 1719 268 1712 263 1704 c 0
 170 1549 113 1362 113 1185 c 3x60
 113 902 248 669 248 483 c 3
 248 296 150 135 60 28 c 0
 50 17 43 11 43 0 c 0xa0
 43 -10 50 -17 60 -28 c 0
 150 -135 248 -296 248 -483 c 3
 248 -669 113 -902 113 -1185 c 3
 113 -1362 170 -1549 263 -1704 c 0
 268 -1712 270 -1719 270 -1725 c 0
 270 -1733 265 -1738 259 -1738 c 0
 251 -1738 241 -1732 232 -1719 c 0
 187 -1656 19 -1397 19 -1085 c 3x60
 19 -788 155 -586 155 -380 c 3
 155 -229 95 -127 14 -25 c 0
 5 -13 0 -6 0 0 c 0xa0
EndSplineSet
EndChar

StartChar: Oacute
Encoding: 211 211 68
Width: 270
VWidth: 0
Flags: W
VStem: 0 43<-31.4183 31.4183> 19 94<-1360.13 -1012.09 1012.09 1360.13> 155 93<-537.724 -332.08 332.08 537.724>
LayerCount: 2
Fore
SplineSet
43 0 m 0xa0
 43 -11 50 -17 60 -28 c 0
 150 -135 248 -296 248 -483 c 3
 248 -669 113 -915 113 -1248 c 3
 113 -1468 170 -1675 263 -1830 c 0
 268 -1838 270 -1845 270 -1851 c 0
 270 -1859 265 -1864 259 -1864 c 0
 251 -1864 241 -1858 232 -1845 c 0
 187 -1782 19 -1482 19 -1148 c 3x60
 19 -804 155 -586 155 -380 c 3
 155 -229 95 -127 14 -25 c 0
 5 -13 0 -7 0 0 c 0xa0
 0 8 5 13 14 25 c 0
 95 127 155 229 155 380 c 3
 155 586 19 804 19 1148 c 7
 19 1482 187 1782 232 1845 c 4
 241 1858 251 1864 259 1864 c 4
 265 1864 270 1859 270 1851 c 4
 270 1845 268 1838 263 1830 c 4
 170 1675 113 1468 113 1248 c 7x60
 113 915 248 669 248 483 c 3
 248 296 150 135 60 28 c 0
 50 17 43 12 43 0 c 0xa0
EndSplineSet
EndChar

StartChar: Ocircumflex
Encoding: 212 212 69
Width: 270
VWidth: 0
Flags: W
VStem: 0 43<-31.4183 31.4183> 19 94<-1360.13 -1012.09 1012.09 1360.13> 155 93<-537.724 -332.08 332.08 537.724>
LayerCount: 2
Fore
SplineSet
43 0 m 0xa0
 43 -12 50 -17 60 -28 c 0
 150 -135 248 -286 248 -489 c 3
 248 -708 113 -928 113 -1308 c 3x60
 113 -1554 170 -1795 263 -1950 c 0
 268 -1958 270 -1965 270 -1971 c 0
 270 -1979 265 -1984 259 -1984 c 0
 251 -1984 241 -1978 232 -1965 c 0
 187 -1902 19 -1572 19 -1208 c 3
 19 -810 155 -636 155 -386 c 3
 155 -228 95 -127 14 -25 c 0
 5 -13 0 -8 0 0 c 0xa0
 0 9 5 13 14 25 c 0
 95 127 155 228 155 386 c 3
 155 636 19 810 19 1208 c 3
 19 1572 187 1902 232 1965 c 0
 241 1978 251 1984 259 1984 c 0
 265 1984 270 1979 270 1971 c 0
 270 1965 268 1958 263 1950 c 0
 170 1795 113 1554 113 1308 c 3x60
 113 928 248 708 248 489 c 3
 248 286 150 135 60 28 c 0
 50 17 43 13 43 0 c 0xa0
EndSplineSet
EndChar

StartChar: Ecircumflex
Encoding: 202 202 70
Width: 1600
VWidth: 0
Flags: W
HStem: -429 38<-18.9973 81.7262 1518.63 1619> 364 42<705.98 894.454>
LayerCount: 2
Back
SplineSet
0 -410 m 21
 400 -410 400 387 800 387 c 7
 1200 387 1200 -410 1600 -410 c 1037
-18 -410 m 0
 -18 -391 -10 -385 0 -385 c 0
 369 -385 369 415 800 415 c 0
 1233 415 1233 -385 1600 -385 c 0
 1617 -385 1618 -396 1618 -410 c 0
 1618 -421 1617 -435 1600 -435 c 0
 1169 -435 1169 365 800 365 c 0
 433 365 433 -435 0 -435 c 0
 -10 -435 -18 -431 -18 -410 c 0
EndSplineSet
Fore
SplineSet
-19 -410 m 0
 -19 -396.242 -15.3333 -391 0 -391 c 0
 376.465 -391 376.703 406 800 406 c 0
 1225.39 406 1225.16 -391 1600 -391 c 0
 1613.76 -391 1619 -394 1619 -410 c 0
 1619 -425.5 1613.76 -429 1600 -429 c 0
 1176.7 -429 1176.46 364 800 364 c 0
 425.156 364 425.393 -429 0 -429 c 0
 -16 -429 -19 -423.758 -19 -410 c 0
EndSplineSet
EndChar

StartChar: Oslash
Encoding: 216 216 71
Width: 124
VWidth: 0
Flags: W
HStem: -31 65<127.128 306.726>
VStem: 3 118<-219 -34.2852>
LayerCount: 2
Fore
SplineSet
-3 -3 m 3
 -3 28 3 35 25 35 c 0
 42 35 106 34 124 34 c 3
 438 34 450 156 476 156 c 3
 479 156 481 155 481 153 c 3
 481 133 409 -31 176 -31 c 3
 124 -31 121 -35 121 -148 c 0
 121 -163 121 -180 121 -200 c 2
 121 -219 l 25
 3 -219 l 17
 3 -200 l 2
 3 -182 -3 -18 -3 -3 c 3
EndSplineSet
EndChar

StartChar: Ugrave
Encoding: 217 217 72
Width: 124
VWidth: 0
Flags: W
HStem: -34 65<127.128 306.726> 199 20G<3 121>
VStem: 3 118<34.2852 219>
LayerCount: 2
Fore
SplineSet
-3 3 m 3
 -3 18 3 182 3 200 c 2
 3 219 l 9
 121 219 l 25
 121 200 l 2
 121 180 121 163 121 148 c 0
 121 35 124 31 176 31 c 3
 409 31 481 -133 481 -153 c 3
 481 -155 479 -156 476 -156 c 3
 450 -156 438 -34 124 -34 c 3
 106 -34 42 -35 25 -35 c 0
 3 -35 -3 -28 -3 3 c 3
EndSplineSet
EndChar

StartChar: Uacute
Encoding: 218 218 73
Width: 124
VWidth: 0
Flags: W
HStem: -56 90<126.056 298.802>
VStem: 3 118<-219 -59.0775>
LayerCount: 2
Fore
SplineSet
-3 -3 m 3
 -3 28 3 35 25 35 c 0
 42 35 106 34 124 34 c 3
 438 34 450 156 476 156 c 3
 479 156 481 155 481 153 c 3
 481 133 409 -56 176 -56 c 3
 124 -56 121 -61 121 -156 c 0
 121 -169 121 -184 121 -200 c 2
 121 -219 l 25
 3 -219 l 17
 3 -200 l 2
 3 -182 -3 -18 -3 -3 c 3
EndSplineSet
EndChar

StartChar: Ucircumflex
Encoding: 219 219 74
Width: 124
VWidth: 0
Flags: W
HStem: -34 90<126.056 298.802> 199 20G<3 121>
VStem: 3 118<59.0775 219>
LayerCount: 2
Fore
SplineSet
-3 3 m 3
 -3 18 3 182 3 200 c 2
 3 219 l 9
 121 219 l 25
 121 200 l 2
 121 184 121 169 121 156 c 0
 121 61 124 56 176 56 c 3
 409 56 481 -133 481 -153 c 3
 481 -155 479 -156 476 -156 c 3
 450 -156 438 -34 124 -34 c 3
 106 -34 42 -35 25 -35 c 0
 3 -35 -3 -28 -3 3 c 3
EndSplineSet
EndChar

StartChar: Udieresis
Encoding: 220 220 75
Width: 124
VWidth: 0
Flags: W
HStem: 321 20G<497.5 504.5>
VStem: 3 118<-219 -65.182>
LayerCount: 2
Fore
SplineSet
-3 -3 m 3
 -3 28 3 34 25 35 c 0
 401 47 492 341 503 341 c 3
 506 341 508 340 508 338 c 3
 508 213 345 -26 176 -56 c 0
 125 -65 121 -70 121 -156 c 3
 121 -169 121 -184 121 -200 c 2
 121 -219 l 25
 3 -219 l 17
 3 -200 l 2
 3 -182 -3 -18 -3 -3 c 3
EndSplineSet
EndChar

StartChar: Yacute
Encoding: 221 221 76
Width: 124
VWidth: 0
Flags: W
HStem: 199 20G<3 121>
VStem: 3 118<65.182 219>
LayerCount: 2
Fore
SplineSet
-3 3 m 3
 -3 18 3 182 3 200 c 2
 3 219 l 9
 121 219 l 25
 121 200 l 2
 121 184 121 169 121 156 c 3
 121 70 125 65 176 56 c 0
 345 26 508 -213 508 -338 c 3
 508 -340 506 -341 503 -341 c 3
 492 -341 401 -47 25 -35 c 0
 3 -34 -3 -28 -3 3 c 3
EndSplineSet
EndChar

StartChar: agrave
Encoding: 224 224 77
Width: 124
VWidth: 0
Flags: W
HStem: 347 20G<642 649>
VStem: 3 118<-219 -80.007>
LayerCount: 2
Back
SplineSet
-3 -3 m 7
 -3 28 3 34 25 35 c 4
 504 48 631 366 642 366 c 7
 645 366 647 365 647 363 c 7
 647 238 432 -16 176 -56 c 4
 125 -64 121 -70 121 -156 c 7
 121 -169 121 -184 121 -200 c 6
 121 -219 l 29
 3 -219 l 21
 3 -200 l 6
 3 -182 -3 -18 -3 -3 c 7
EndSplineSet
Fore
SplineSet
-5 -4 m 3
 -5 27 3 34 25 35 c 0
 398 45 557 240 615 326 c 0
 632 351 637 367 647 367 c 3
 651 367 652 364 652 358 c 0
 652 348 649 333 644 316 c 0
 620 226 437 0 201 -51 c 0
 135 -66 121 -90 121 -156 c 2
 121 -219 l 25
 3 -219 l 17
 3 -200 l 2
 3 -182 -5 -19 -5 -4 c 3
EndSplineSet
EndChar

StartChar: aacute
Encoding: 225 225 78
Width: 124
VWidth: 0
Flags: W
HStem: 199 20G<3 121>
VStem: 3 118<80.007 219>
LayerCount: 2
Fore
SplineSet
-5 4 m 3
 -5 19 3 182 3 200 c 2
 3 219 l 9
 121 219 l 25
 121 156 l 2
 121 90 135 66 201 51 c 0
 437 0 620 -226 644 -316 c 0
 649 -333 652 -348 652 -358 c 0
 652 -364 651 -367 647 -367 c 3
 637 -367 632 -351 615 -326 c 0
 557 -240 398 -45 25 -35 c 0
 3 -34 -5 -27 -5 4 c 3
EndSplineSet
EndChar

StartChar: atilde
Encoding: 227 227 79
Width: 124
VWidth: 0
Flags: W
VStem: 3 118<80.007 200>
LayerCount: 2
Fore
SplineSet
129 4 m 3
 129 19 121 182 121 200 c 2
 121 219 l 9
 3 219 l 25
 3 156 l 2
 3 90 -11 66 -77 51 c 0
 -313 0 -496 -226 -520 -316 c 0
 -525 -333 -528 -348 -528 -358 c 0
 -528 -364 -527 -367 -523 -367 c 3
 -513 -367 -508 -351 -491 -326 c 0
 -433 -240 -274 -45 99 -35 c 0
 121 -34 129 -27 129 4 c 3
EndSplineSet
EndChar

StartChar: R
Encoding: 82 82 80
Width: 115
VWidth: 0
Flags: W
HStem: -261 28<28 115> 233 28<28 115>
VStem: 0 115<-261 -233 233 261> 0 28<-233 233>
LayerCount: 2
Back
SplineSet
31 213 m 6xd0
 31 -213 l 6xd0
 31 -224 35 -230 47 -230 c 6
 101 -230 l 6
 114 -230 115 -231.5 115 -246 c 4
 115 -260.25 114 -261 103 -261 c 6
 15 -261 l 6
 2 -261 0 -259 0 -246 c 6
 0 246 l 6
 0 259 2 261 15 261 c 6
 103 261 l 6
 114 261 115 260 115 246 c 4xe0
 115 230.833 114 230 101 230 c 6
 47 230 l 6
 35 230 31 224 31 213 c 6xd0
EndSplineSet
Fore
SplineSet
28 222 m 6xd0
 28 -221 l 2xd0
 28 -227 35 -233 39 -233 c 2
 115 -233 l 1
 115 -261 l 1
 0 -261 l 1
 0 261 l 1
 115 261 l 1
 115 233 l 1xe0
 39 233 l 2
 34 233 28 226 28 222 c 6xd0
EndSplineSet
EndChar

StartChar: S
Encoding: 83 83 81
Width: 125
VWidth: 0
Flags: W
HStem: -323 29<29 125> 294 29<29 125>
VStem: 0 125<-323 -294 294 323> 0 29<-294 294>
LayerCount: 2
Back
SplineSet
31 275 m 6xd0
 31 -275 l 6xd0
 31 -286 35 -292 47 -292 c 6
 111 -292 l 6
 124 -292 125 -293.5 125 -308 c 4
 125 -322.25 124 -323 113 -323 c 6
 15 -323 l 6
 2 -323 0 -321 0 -308 c 6
 0 308 l 6
 0 321 2 323 15 323 c 6
 113 323 l 6
 124 323 125 322 125 308 c 4xe0
 125 292.833 124 292 111 292 c 6
 47 292 l 6
 35 292 31 286 31 275 c 6xd0
EndSplineSet
Fore
SplineSet
29 283 m 2xd0
 29 -282 l 2xd0
 29 -288 36 -294 40 -294 c 2
 125 -294 l 1
 125 -323 l 1
 0 -323 l 1
 0 323 l 1
 125 323 l 1
 125 294 l 1xe0
 40 294 l 2
 35 294 29 287 29 283 c 2xd0
EndSplineSet
EndChar

StartChar: T
Encoding: 84 84 82
Width: 135
VWidth: 0
Flags: W
HStem: -385 30<30 135> 355 30<30 135>
VStem: 0 30<-355 355>
LayerCount: 2
Back
SplineSet
31 337 m 6xd0
 31 -337 l 2xd0
 31 -348 35 -354 47 -354 c 2
 121 -354 l 2
 134 -354 135 -355.5 135 -370 c 0
 135 -384.25 134 -385 123 -385 c 2
 15 -385 l 2
 2 -385 0 -383 0 -370 c 2
 0 370 l 2
 0 383 2 385 15 385 c 2
 123 385 l 2
 134 385 135 384 135 370 c 0xe0
 135 354.833 134 354 121 354 c 2
 47 354 l 2
 35 354 31 348 31 337 c 6xd0
EndSplineSet
Fore
SplineSet
30 344 m 2
 30 -343 l 2
 30 -349 37 -355 41 -355 c 2
 135 -355 l 1
 135 -385 l 1
 0 -385 l 1
 0 385 l 1
 135 385 l 1
 135 355 l 1
 41 355 l 2
 36 355 30 348 30 344 c 2
EndSplineSet
EndChar

StartChar: V
Encoding: 86 86 83
Width: 155
VWidth: 0
Flags: W
HStem: -510 30<30 155> 480 30<30 155>
VStem: 0 30<-480 480>
LayerCount: 2
Back
SplineSet
31 462 m 6
 31 -462 l 6
 31 -473 35 -479 47 -479 c 6
 141 -479 l 6
 154 -479 155 -480 155 -495 c 4
 155 -509 154 -510 143 -510 c 6
 15 -510 l 6
 2 -510 0 -508 0 -495 c 6
 0 495 l 6
 0 508 2 510 15 510 c 6
 143 510 l 6
 154 510 155 509 155 495 c 4
 155 480 154 479 141 479 c 6
 47 479 l 6
 35 479 31 473 31 462 c 6
EndSplineSet
Fore
SplineSet
30 469 m 2
 30 -468 l 2
 30 -474 37 -480 41 -480 c 2
 155 -480 l 1
 155 -510 l 1
 0 -510 l 1
 0 510 l 1
 155 510 l 1
 155 480 l 1
 41 480 l 2
 36 480 30 473 30 469 c 2
EndSplineSet
EndChar

StartChar: W
Encoding: 87 87 84
Width: 165
VWidth: 0
Flags: W
HStem: -635 30<30 165> 605 30<30 165>
VStem: 0 30<-605 605>
LayerCount: 2
Back
SplineSet
31 587 m 6
 31 -587 l 6
 31 -598 35 -604 47 -604 c 6
 151 -604 l 6
 164 -604 165 -605 165 -620 c 4
 165 -634 164 -635 153 -635 c 6
 15 -635 l 6
 2 -635 0 -633 0 -620 c 6
 0 620 l 6
 0 633 2 635 15 635 c 6
 153 635 l 6
 164 635 165 634 165 620 c 4
 165 605 164 604 151 604 c 6
 47 604 l 6
 35 604 31 598 31 587 c 6
EndSplineSet
Fore
SplineSet
30 594 m 2
 30 -593 l 2
 30 -599 37 -605 41 -605 c 2
 165 -605 l 1
 165 -635 l 1
 0 -635 l 1
 0 635 l 1
 165 635 l 1
 165 605 l 1
 41 605 l 2
 36 605 30 598 30 594 c 2
EndSplineSet
EndChar

StartChar: e
Encoding: 101 101 86
Width: 145
VWidth: 0
Flags: HW
HStem: 355 30<10 115> -385 30<10 115>
VStem: 115 30<-355 355>
LayerCount: 2
Fore
SplineSet
115 -407 m 2
 115 406 l 2
 115 412 108 418 104 418 c 2
 0 418 l 1
 0 448 l 1
 145 448 l 1
 145 -448 l 1
 0 -448 l 1
 0 -418 l 1
 104 -418 l 2
 109 -418 115 -411 115 -407 c 2
EndSplineSet
EndChar

StartChar: f
Encoding: 102 102 87
Width: 155
VWidth: 0
Flags: HW
HStem: 480 30<0 125> -510 30<0 125>
VStem: 125 30<-480 480>
LayerCount: 2
Fore
SplineSet
125 -469 m 2
 125 468 l 2
 125 474 118 480 114 480 c 2
 0 480 l 1
 0 510 l 1
 155 510 l 1
 155 -510 l 1
 0 -510 l 1
 0 -480 l 1
 114 -480 l 2
 119 -480 125 -473 125 -469 c 2
EndSplineSet
EndChar

StartChar: g
Encoding: 103 103 88
Width: 165
VWidth: 0
Flags: HW
HStem: 605 30<0 135> -635 30<0 135>
VStem: 135 30<-605 605>
LayerCount: 2
Fore
SplineSet
135 -594 m 2
 135 593 l 2
 135 599 128 605 124 605 c 2
 0 605 l 1
 0 635 l 1
 165 635 l 1
 165 -635 l 1
 0 -635 l 1
 0 -605 l 1
 124 -605 l 2
 129 -605 135 -598 135 -594 c 2
EndSplineSet
EndChar

StartChar: h
Encoding: 104 104 89
Width: 175
VWidth: 0
Flags: HW
HStem: 605 30<10 145> -635 30<10 145>
VStem: 145 30<-605 605>
LayerCount: 2
Fore
SplineSet
145 -719 m 2
 145 718 l 2
 145 724 138 730 134 730 c 2
 0 730 l 5
 0 760 l 5
 175 760 l 1
 175 -760 l 1
 0 -760 l 1
 0 -730 l 1
 134 -730 l 2
 139 -730 145 -723 145 -719 c 2
EndSplineSet
EndChar

StartChar: i
Encoding: 105 105 90
Width: 185
VWidth: 0
Flags: HW
HStem: 605 30<20 155> -635 30<20 155>
VStem: 155 30<-605 605>
LayerCount: 2
Fore
SplineSet
155 -844 m 2
 155 843 l 2
 155 849 148 855 144 855 c 2
 0 855 l 1
 0 885 l 1
 185 885 l 1
 185 -885 l 1
 0 -885 l 1
 0 -855 l 1
 144 -855 l 2
 149 -855 155 -848 155 -844 c 2
EndSplineSet
EndChar

StartChar: j
Encoding: 106 106 91
Width: 195
VWidth: 0
Flags: HW
HStem: 605 30<30 165> -635 30<30 165>
VStem: 165 30<-605 605>
LayerCount: 2
Fore
SplineSet
165 -969 m 2
 165 968 l 2
 165 974 158 980 154 980 c 2
 0 980 l 5
 0 1010 l 5
 195 1010 l 1
 195 -1010 l 1
 0 -1010 l 1
 0 -980 l 1
 154 -980 l 2
 159 -980 165 -973 165 -969 c 2
EndSplineSet
EndChar

StartChar: k
Encoding: 107 107 92
Width: 205
VWidth: 0
Flags: HW
HStem: 605 30<40 175> -635 30<40 175>
VStem: 175 30<-605 605>
LayerCount: 2
Fore
SplineSet
175 -1094 m 2
 175 1093 l 2
 175 1099 168 1105 164 1105 c 2
 0 1105 l 1
 0 1135 l 1
 205 1135 l 1
 205 -1135 l 1
 0 -1135 l 1
 0 -1105 l 1
 164 -1105 l 2
 169 -1105 175 -1098 175 -1094 c 2
EndSplineSet
EndChar

StartChar: greater
Encoding: 62 62 93
Width: 500
VWidth: 0
Flags: W
HStem: -123 36<140.555 359.445>
LayerCount: 2
Fore
SplineSet
250 -123 m 3
 86 -123 0 -17 0 0 c 3
 0 6 3 8 9 8 c 3
 24 8 72 -87 250 -87 c 3
 428 -87 476 8 491 8 c 3
 497 8 500 6 500 0 c 3
 500 -17 414 -123 250 -123 c 3
EndSplineSet
EndChar

StartChar: semicolon
Encoding: 59 59 94
Width: 626
VWidth: 0
Flags: W
HStem: 102 38<186.898 439.102>
LayerCount: 2
Fore
SplineSet
313 102 m 3
 93 102 29 -8 10 -8 c 3
 3 -8 0 -8 0 0 c 3
 0 21 123 140 313 140 c 3
 503 140 626 21 626 0 c 3
 626 -8 623 -8 616 -8 c 3
 597 -8 533 102 313 102 c 3
EndSplineSet
EndChar

StartChar: question
Encoding: 63 63 95
Width: 626
VWidth: 0
Flags: W
HStem: -140 38<186.898 439.102>
LayerCount: 2
Fore
SplineSet
313 -102 m 3
 533 -102 597 8 616 8 c 3
 623 8 626 8 626 0 c 3
 626 -21 503 -140 313 -140 c 3
 123 -140 0 -21 0 0 c 3
 0 8 3 8 10 8 c 3
 29 8 93 -102 313 -102 c 3
EndSplineSet
EndChar

StartChar: egrave
Encoding: 232 232 96
Width: 107
VWidth: 0
Flags: HMW
HStem: 347 20G<642 649>
VStem: 3 118<-219 -80.007>
LayerCount: 2
Fore
SplineSet
-5 -4 m 3
 -5 27 3 34 25 35 c 0
 398 45 557 240 615 326 c 0
 632 351 637 367 647 367 c 3
 651 367 652 364 652 358 c 0
 652 322 617 251 563 190 c 0
 479 96 339 -10 184 -44 c 0
 118 -59 104 -83 104 -149 c 2
 104 -219 l 17
 3 -219 l 1
 3 -200 l 2
 3 -182 -5 -19 -5 -4 c 3
EndSplineSet
EndChar

StartChar: eacute
Encoding: 233 233 97
Width: 107
VWidth: 0
Flags: HW
HStem: 347 20G<642 649>
VStem: 3 118<-219 -80.007>
LayerCount: 2
Fore
SplineSet
-5 4 m 3
 -5 19 3 182 3 200 c 2
 3 219 l 1
 104 219 l 9
 104 149 l 2
 104 83 118 59 184 44 c 0
 339 10 479 -96 563 -190 c 0
 617 -251 652 -322 652 -358 c 0
 652 -364 651 -367 647 -367 c 3
 637 -367 632 -351 615 -326 c 0
 557 -240 398 -45 25 -35 c 0
 3 -34 -5 -27 -5 4 c 3
EndSplineSet
EndChar

StartChar: uni0015
Encoding: 21 21 98
Width: 1000
LayerCount: 2
Back
SplineSet
179 -71 m 4
 124 -71 116 6 70 6 c 4
 50 6 27 -16 14 -28 c 4
 4 -38 -5 -29 3 -14 c 4
 11 0 29 17 34 22 c 4
 60 47 91 71 125 71 c 4
 180 71 188 -6 234 -6 c 4
 254 -6 277 16 290 28 c 4
 300 38 309 29 301 14 c 4
 293 0 275 -17 270 -22 c 4
 244 -47 213 -71 179 -71 c 4
EndSplineSet
EndChar

StartChar: x
Encoding: 120 120 99
Width: 802
Flags: W
HStem: -71 65<151.5 237.449 400.5 486.449 649.5 735.572> 6 65<66.4282 152.5 315.551 401.5 564.551 650.5>
LayerCount: 2
Fore
SplineSet
179 -71 m 0
 124 -71 116 6 70 6 c 0
 50 6 27 -16 14 -28 c 0
 11 -31 8 -32 6 -32 c 0
 2 -32 -0 -29 -0 -25 c 0
 -0 -22 1 -18 3 -14 c 0
 11 0 29 17 34 22 c 0
 60 47 91 71 125 71 c 0
 180 71 188 -6 234 -6 c 0
 248.969 -6 265.619 6.32427 278.499 17.5557 c 2
 283 22 l 2
 309 47 340 71 374 71 c 0
 429 71 437 -6 483 -6 c 0
 497.969 -6 514.619 6.32427 527.499 17.5557 c 2
 532 22 l 2
 558 47 589 71 623 71 c 0
 678 71 686 -6 732 -6 c 0
 752 -6 775 16 788 28 c 0
 791 31 794 32 796 32 c 0
 800 32 802 29 802 25 c 0
 802 22 801 18 799 14 c 0
 791 0 773 -17 768 -22 c 0
 742 -47 711 -71 677 -71 c 0
 622 -71 614 6 568 6 c 0
 553.031 6 536.381 -6.32427 523.501 -17.5557 c 2
 519 -22 l 2
 493 -47 462 -71 428 -71 c 0
 373 -71 365 6 319 6 c 0
 304.031 6 287.381 -6.32427 274.501 -17.5557 c 2
 270 -22 l 2
 244 -47 213 -71 179 -71 c 0
EndSplineSet
EndChar

StartChar: y
Encoding: 121 121 100
Width: 802
Flags: W
HStem: 0 21G<23.5 27> 791 11<-31.5 18>
VStem: -71 65<66.4282 152.5 315.551 401.5 564.551 650.5> 6 65<151.5 237.449 400.5 486.449 649.5 735.572>
LayerCount: 2
Fore
SplineSet
84 770 m 4
 84 764 78 763 76 763 c 7
 58 763 36 791 0 791 c 7
 -34 791 -62 763 -76 763 c 7
 -78 763 -82 765 -82 770 c 4
 -82 780 -72 789 -38 848 c 4
 -10 897 -8 917 2 917 c 4
 16 917 12 898 42 847 c 4
 74 794 84 782 84 770 c 4
71 179 m 0
 71 124 -6 116 -6 70 c 0
 -6 50 16 27 28 14 c 0
 31 11 32 8 32 6 c 0
 32 2 29 0 25 0 c 0
 22 0 18 1 14 3 c 0
 0 11 -17 29 -22 34 c 0
 -47 60 -71 91 -71 125 c 0
 -71 180 6 188 6 234 c 0
 6 248.969 -6.32422 265.619 -17.5557 278.499 c 2
 -22 283 l 2
 -47 309 -71 340 -71 374 c 0
 -71 429 6 437 6 483 c 0
 6 497.969 -6.32422 514.619 -17.5557 527.499 c 2
 -22 532 l 2
 -47 558 -71 589 -71 623 c 0
 -71 678 6 686 6 732 c 0
 6 752 -16 775 -28 788 c 0
 -31 791 -32 794 -32 796 c 0
 -32 800 -29 802 -25 802 c 0
 -22 802 -18 801 -14 799 c 0
 0 791 17 773 22 768 c 0
 47 742 71 711 71 677 c 0
 71 622 -6 614 -6 568 c 0
 -6 553.031 6.32422 536.381 17.5557 523.501 c 2
 22 519 l 2
 47 493 71 462 71 428 c 0
 71 373 -6 365 -6 319 c 0
 -6 304.031 6.32422 287.381 17.5557 274.501 c 2
 22 270 l 2
 47 244 71 213 71 179 c 0
EndSplineSet
EndChar

StartChar: z
Encoding: 122 122 101
Width: 435
Flags: W
HStem: -20 14<234 287> 6 65<66.4282 152.5>
LayerCount: 2
Fore
SplineSet
281 -74 m 0
 281 -63 298 -44 298 -31 c 0
 298 -24 294 -20 287 -20 c 0
 282 -20 276 -22 268 -27 c 0
 243 -44 217 -71 179 -71 c 0
 124 -71 116 6 70 6 c 0
 50 6 27 -16 14 -28 c 0
 11 -31 8 -32 6 -32 c 0
 2 -32 -0 -29 -0 -25 c 0
 -0 -22 1 -18 3 -14 c 0
 11 0 29 17 34 22 c 0
 60 47 91 71 125 71 c 0
 180 71 188 -6 234 -6 c 0
 247 -6 259 3 273 10 c 0
 286 17 297 24 297 36 c 0
 297 49 281 70 281 78 c 0
 281 80 283 84 288 84 c 0
 298 84 307 74 366 40 c 0
 415 12 435 10 435 0 c 0
 435 -14 416 -10 365 -40 c 0
 312 -72 300 -82 288 -82 c 0
 282 -82 281 -76 281 -74 c 0
EndSplineSet
EndChar

StartChar: braceleft
Encoding: 123 123 102
Width: 380
Flags: W
HStem: -69 65<282.5 368.572> 8 14<148 201>
LayerCount: 2
Fore
SplineSet
154 76 m 0
 154 65 137 46 137 33 c 0
 137 26 141 22 148 22 c 0
 153 22 159 24 167 29 c 0
 192 46 218 73 256 73 c 0
 311 73 319 -4 365 -4 c 0
 385 -4 408 18 421 30 c 0
 424 33 427 34 429 34 c 0
 433 34 435 31 435 27 c 0
 435 24 434 20 432 16 c 0
 424 2 406 -15 401 -20 c 0
 375 -45 344 -69 310 -69 c 0
 255 -69 247 8 201 8 c 0
 188 8 176 -1 162 -8 c 0
 149 -15 138 -22 138 -34 c 0
 138 -47 154 -68 154 -76 c 0
 154 -78 152 -82 147 -82 c 0
 137 -82 128 -72 69 -38 c 0
 20 -10 0 -8 0 2 c 0
 0 16 19 12 70 42 c 0
 123 74 135 84 147 84 c 0
 153 84 154 78 154 76 c 0
EndSplineSet
EndChar

StartChar: uni0080
Encoding: 128 128 103
Width: 249
Flags: W
HStem: -71 65<151.5 237.572> 6 65<66.4282 152.5>
LayerCount: 2
Fore
SplineSet
179 -71 m 0
 124 -71 116 6 70 6 c 0
 50 6 27 -16 14 -28 c 0
 11 -31 8 -32 6 -32 c 0
 2 -32 -0 -29 -0 -25 c 0
 -0 -22 1 -18 3 -14 c 0
 11 0 29 17 34 22 c 0
 60 47 91 71 125 71 c 0
 180 71 188 -6 234 -6 c 0
 254 -6 277 16 290 28 c 0
 293 31 296 32 298 32 c 0
 302 32 304 29 304 25 c 0
 304 22 303 18 301 14 c 0
 293 0 275 -17 270 -22 c 0
 244 -47 213 -71 179 -71 c 0
EndSplineSet
EndChar

StartChar: uni0081
Encoding: 129 129 104
Width: 249
Flags: W
HStem: -12 24<270.514 324.519> 6 65<66.4282 152.5>
LayerCount: 2
Fore
SplineSet
179 -71 m 0x80
 124 -71 116 6 70 6 c 0
 50 6 27 -16 14 -28 c 0
 4 -38 -5 -29 3 -14 c 0
 11 0 29 17 34 22 c 0
 60 47 91 71 125 71 c 0x40
 180 71 188 -6 234 -6 c 0
 252 -6 267.333 12 296 12 c 0
 333.667 12 346.333 -12 298 -12 c 0
 276.667 -12 253.636 -39.271 232.333 -53.0313 c 0
 215.656 -63.8039 197.778 -71 179 -71 c 0x80
EndSplineSet
EndChar

StartChar: bar
Encoding: 124 124 105
Width: 1182
Flags: W
HStem: -71 65<151.5 237.449 400.5 486.449 649.5 735.449 898.5 984.611> 6 65<66.4282 152.5 315.551 401.5 564.551 650.5 813.551 899.5> 64 20G<1032.5 1040>
LayerCount: 2
Fore
SplineSet
179 -71 m 0xc0
 124 -71 116 6 70 6 c 0
 50 6 27 -16 14 -28 c 0
 11 -31 8 -32 6 -32 c 0
 2 -32 -0 -29 -0 -25 c 0
 -0 -22 1 -18 3 -14 c 0
 11 0 29 17 34 22 c 0
 60 47 91 71 125 71 c 0
 180 71 188 -6 234 -6 c 0
 248.969 -6 265.619 6.32427 278.499 17.5557 c 1
 283 22 l 2
 309 47 340 71 374 71 c 0
 429 71 437 -6 483 -6 c 0
 497.969 -6 514.619 6.32427 527.499 17.5557 c 1
 532 22 l 2
 558 47 589 71 623 71 c 0
 678 71 686 -6 732 -6 c 0
 746.969 -6 763.619 6.32427 776.499 17.5557 c 2
 781 22 l 2
 807 47 838 71 872 71 c 0xc0
 927 71 935 -6 981 -6 c 0
 994 -6 1006 3 1020 10 c 0
 1033 17 1044 24 1044 36 c 0
 1044 49 1028 70 1028 78 c 0
 1028 80 1030 84 1035 84 c 0xa0
 1045 84 1053.94 73.8924 1113 40 c 0
 1161.95 11.9108 1182 10 1182 0 c 0
 1182 -14 1163 -10 1112 -40 c 0
 1059 -72 1047 -82 1035 -82 c 0
 1029 -82 1028 -76 1028 -74 c 0
 1028 -63 1045 -44 1045 -31 c 0
 1045 -24 1041 -20 1034 -20 c 0
 1029 -20 1023 -22 1015 -27 c 0
 990 -44 964 -71 926 -71 c 0
 871 -71 863 6 817 6 c 0
 802.031 6 785.381 -6.32427 772.501 -17.5557 c 2
 768 -22 l 2
 742 -47 711 -71 677 -71 c 0
 622 -71 614 6 568 6 c 0
 553.031 6 536.381 -6.32427 523.501 -17.5557 c 1
 519 -22 l 2
 493 -47 462 -71 428 -71 c 0
 373 -71 365 6 319 6 c 0
 304.031 6 287.381 -6.32427 274.501 -17.5557 c 1
 270 -22 l 2
 244 -47 213 -71 179 -71 c 0xc0
EndSplineSet
EndChar

StartChar: H
Encoding: 72 72 106
Width: 460
VWidth: 0
Flags: W
HStem: -18 36<-89.9985 167.578 291.787 549.998> 172 20G<184.5 276>
VStem: 170 120<-188.782 -19.1013 19.0912 191.861>
LayerCount: 2
Fore
SplineSet
141 18 m 2
 156 18 170 31 170 45 c 2
 170 159 l 2
 170 182 173 192 196 192 c 2
 196 192 266 192 268 192 c 2
 284 192 290 187 290 168 c 2
 290 45 l 2
 290 31 298 18 319 18 c 2
 536 18 l 2
 548 18 550 16 550 0 c 0
 550 -16 548 -18 535 -18 c 2
 319 -18 l 2
 301 -18 290 -29 290 -47 c 2
 290 -165 l 2
 290 -183 282 -189 263 -189 c 2
 195 -189 l 2
 174 -189 170 -181 170 -156 c 2
 170 -47 l 2
 170 -31 156 -18 141 -18 c 2
 -72 -18 l 2
 -88 -18 -90 -16 -90 0 c 0
 -90 16 -89 18 -73 18 c 2
 141 18 l 2
EndSplineSet
EndChar

StartChar: I
Encoding: 73 73 107
Width: 460
VWidth: 0
Flags: W
HStem: -18 36<-89.9992 549.999> 131 21G<184.5 272.5> 472 20G<184.5 276> 472 20G<184.5 276>
VStem: 170 120<131.218 491.861>
LayerCount: 2
Fore
SplineSet
170 459 m 2xe8
 170 482 173 492 196 492 c 2
 196 492 266 492 268 492 c 2
 284 492 290 487 290 468 c 2
 290 155 l 2
 290 137 282 131 263 131 c 2
 195 131 l 2
 174 131 170 139 170 164 c 2
 170 459 l 2xe8
537 18 m 2
 549 18 550 15 550 0 c 0
 550 -15 549 -18 536 -18 c 2
 -75 -18 l 2
 -89 -18 -90 -16 -90 0 c 0
 -90 15 -90 18 -76 18 c 2
 537 18 l 2
EndSplineSet
EndChar

StartChar: J
Encoding: 74 74 108
Width: 460
VWidth: 0
Flags: W
HStem: -18 36<-89.9992 549.999>
VStem: 170 120<-491.861 -131.218>
LayerCount: 2
Fore
SplineSet
537 18 m 2
 549 18 550 15 550 0 c 0
 550 -15 549 -18 536 -18 c 2
 -75 -18 l 2
 -89 -18 -90 -16 -90 0 c 0
 -90 15 -90 18 -76 18 c 2
 537 18 l 2
170 -459 m 2
 170 -164 l 2
 170 -139 174 -131 195 -131 c 2
 263 -131 l 2
 282 -131 290 -137 290 -155 c 2
 290 -468 l 2
 290 -487 284 -492 268 -492 c 2
 196 -492 l 2
 173 -492 170 -482 170 -459 c 2
EndSplineSet
EndChar

StartChar: K
Encoding: 75 75 109
Width: 316
VWidth: 0
Flags: W
HStem: -18 36<-79.9992 137.578 177.787 395.999> 562 20G<148 165.5>
VStem: 140 36<-578.962 -20.5643 20.5268 581.976>
LayerCount: 2
Fore
SplineSet
111 18 m 2
 126 18 140 31 140 45 c 2
 140 567 l 2
 140 581 140 582 156 582 c 2
 159 582 l 2
 172 582 176 581 176 567 c 2
 176 45 l 2
 176 31 184 18 205 18 c 2
 382 18 l 2
 395 18 396 15 396 0 c 0
 396 -13 395 -18 381 -18 c 2
 205 -18 l 2
 187 -18 176 -29 176 -47 c 2
 176 -562 l 2
 176 -578 173 -579 158 -579 c 2
 157 -579 l 2
 141 -579 140 -579 140 -564 c 2
 140 -47 l 2
 140 -31 126 -18 111 -18 c 2
 -68 -18 l 2
 -79 -18 -80 -14 -80 0 c 0
 -80 15 -79 18 -69 18 c 2
 111 18 l 2
EndSplineSet
EndChar

StartChar: uni0004
Encoding: 4 4 110
Width: 166
VWidth: -9
Flags: HW
LayerCount: 2
Fore
SplineSet
0 346 m 0
 0 352 6 353 8 353 c 3
 26 353 48 325 84 325 c 3
 118 325 146 353 160 353 c 3x9e
 162 353 166 351 166 346 c 0
 166 336 156 327 122 268 c 0
 94 219 92 199 82 199 c 0x4e
 68 199 72 218 42 269 c 0
 10 322 0 334 0 346 c 0
EndSplineSet
EndChar

StartChar: Amacron
Encoding: 256 256 111
Width: 690
VWidth: -9
Flags: HW
LayerCount: 2
Fore
SplineSet
242 127 m 0
 236 125 219 120 214 120 c 0
 207 120 204 124 204 139 c 0
 204 146 208 153 226 159 c 0
 248 166 378 208 384 210 c 0
 388 211 405 217 411 217 c 0
 420 217 422 208 422 202 c 3
 422 192 420 184 398 177 c 0
 376 170 253 130 242 127 c 0
398 328 m 9
 360 328 l 17
 360 358 360 252 360 405 c 0
 360 462 322 416 300 416 c 0
 298 416 294 418 294 423 c 0
 294 433 304 442 338 501 c 0
 366 550 368 570 378 570 c 0
 392 570 390 551 418 500 c 0
 448 446 460 435 460 423 c 0
 460 417 454 416 452 416 c 0
 428 416 398 459 398 405 c 0
 398 301 398 358 398 328 c 9
200 489 m 4
 200 483 194 482 192 482 c 7
 174 482 152 510 116 510 c 7
 82 510 54 482 40 482 c 7
 38 482 34 484 34 489 c 4
 34 499 44 508 78 567 c 4
 106 616 108 636 118 636 c 4
 132 636 128 617 158 566 c 4
 190 513 200 501 200 489 c 4
142 456 m 2
 155 434 161 421 161 413 c 0
 161 401 147 399 114 399 c 2
 67 399 l 2
 34 399 20 400 20 411 c 0
 20 418 27 431 40 453 c 2
 64 496 l 2
 76 517 82 530 90 530 c 0
 96 530 104 521 118 498 c 2
 142 456 l 2
110 425 m 1
 110 -147 l 2
 110 -169 106 -171 90 -171 c 0
 73 -171 68 -169 68 -146 c 2
 68 425 l 1
 110 425 l 1
EndSplineSet
EndChar

StartChar: amacron
Encoding: 257 257 112
Width: 0
VWidth: -9
Flags: W
HStem: 298 21G<65 101> 520 20G<79 91>
VStem: 65 36<298 400.742>
LayerCount: 2
Fore
SplineSet
101 298 m 9
 65 298 l 17
 65 375 l 2
 65 434.333 28 386 6 386 c 0
 4 386 0 388 0 393 c 0
 0 403 10 412 44 471 c 0
 72 520 74 540 84 540 c 0
 98 540 96 521 124 470 c 0
 154 416 166 405 166 393 c 0
 166 387 160 386 158 386 c 0
 134 386 101 431.333 101 375 c 2
 101 375 101 328 101 298 c 9
EndSplineSet
EndChar

StartChar: Abreve
Encoding: 258 258 113
Width: 0
VWidth: -9
Flags: W
VStem: -18 36<-170.998 425>
LayerCount: 2
Fore
SplineSet
-13 0 m 13
 -13 740 l 5
 13 740 l 5
 13 0 l 21
 -13 0 l 13
EndSplineSet
EndChar

StartChar: abreve
Encoding: 259 259 114
Width: 0
VWidth: -9
Flags: HW
VStem: -18 36<-170.998 425>
LayerCount: 2
Fore
SplineSet
0 775 m 0
 4 775 19 734 45 686 c 0
 73 637 99 604 97 600 c 0
 96 598 67 614 37 624 c 0
 31 626 13 620 13 606 c 2
 13 0 l 1
 -13 0 l 1
 -13 607 l 2
 -13 619 -30 626 -38 624 c 0
 -68 614 -96 598 -97 600 c 0
 -99 604 -73 637 -45 686 c 0
 -19 734 -4 775 0 775 c 0
EndSplineSet
EndChar

StartChar: Aogonek
Encoding: 260 260 115
Width: 0
VWidth: -9
Flags: HW
VStem: -18 36<325 920.998>
LayerCount: 2
Fore
SplineSet
0 -25 m 0
 -4 -25 -19 16 -45 64 c 0
 -73 113 -99 146 -97 150 c 0
 -96 152 -67 136 -37 126 c 0
 -31 124 -13 130 -13 144 c 2
 -13 750 l 1
 13 750 l 1
 13 143 l 2
 13 131 30 124 38 126 c 0
 68 136 96 152 97 150 c 0
 99 146 73 113 45 64 c 0
 19 16 4 -25 0 -25 c 0
EndSplineSet
EndChar

StartChar: aogonek
Encoding: 261 261 116
Width: 750
VWidth: -9
Flags: HW
VStem: -18 36<-170.998 425>
LayerCount: 2
Fore
SplineSet
775 0 m 0
 775 -4 734 -19 686 -45 c 0
 637 -73 604 -99 600 -97 c 0
 598 -96 614 -67 624 -37 c 0
 626 -31 620 -13 606 -13 c 2
 0 -13 l 1
 0 13 l 1
 607 13 l 2
 619 13 626 30 624 38 c 0
 614 68 598 96 600 97 c 0
 604 99 637 73 686 45 c 0
 734 19 775 4 775 0 c 0
EndSplineSet
EndChar

StartChar: Cacute
Encoding: 262 262 117
Width: 750
VWidth: -9
Flags: HW
VStem: 732 36<-425 170.998>
LayerCount: 2
Fore
SplineSet
-25 0 m 0
 -25 4 16 19 64 45 c 0
 113 73 146 99 150 97 c 0
 152 96 136 67 126 37 c 0
 124 31 130 13 144 13 c 2
 750 13 l 1
 750 -13 l 1
 143 -13 l 2
 131 -13 124 -30 126 -38 c 0
 136 -68 152 -96 150 -97 c 0
 146 -99 113 -73 64 -45 c 0
 16 -19 -25 -4 -25 0 c 0
EndSplineSet
EndChar

StartChar: Ccircumflex
Encoding: 264 264 118
Width: 154
VWidth: -9
Flags: W
HStem: -18 36<-88 14.7422>
LayerCount: 2
Fore
SplineSet
-88 -18 m 9
 -88 18 l 17
 -11 18 l 2
 48.333 18 0 55 0 77 c 0
 0 79 2 83 7 83 c 0
 17 83 26 73 85 39 c 0
 134 11 154 9 154 -1 c 0
 154 -15 135 -13 84 -41 c 0
 30 -71 19 -83 7 -83 c 0
 1 -83 0 -77 0 -75 c 0
 0 -51 45.333 -18 -11 -18 c 2
 -11 -18 -58 -18 -88 -18 c 9
EndSplineSet
EndChar

StartChar: ccircumflex
Encoding: 265 265 119
Width: 154
VWidth: -9
Flags: W
HStem: -18 36<-14.7422 88>
LayerCount: 2
Fore
SplineSet
88 18 m 9
 88 -18 l 17
 11 -18 l 2
 -48.333 -18 0 -55 0 -77 c 0
 0 -79 -2 -83 -7 -83 c 0
 -17 -83 -26 -73 -85 -39 c 0
 -134 -11 -154 -9 -154 1 c 0
 -154 15 -135 13 -84 41 c 0
 -30 71 -19 83 -7 83 c 0
 -1 83 0 77 0 75 c 0
 0 51 -45.333 18 11 18 c 2
 11 18 58 18 88 18 c 9
EndSplineSet
EndChar

StartChar: dollar
Encoding: 36 36 120
Width: 139
VWidth: 0
Flags: W
VStem: 0 33<-138.578 149.013>
LayerCount: 2
Fore
SplineSet
0 5 m 0
 0 191 77 335 114 382 c 0
 131 403 149 389 134 365 c 0
 108 322 33 189 33 5 c 0
 33 -178 108 -312 134 -355 c 0
 149 -379 131 -393 114 -372 c 0
 77 -325 0 -180 0 5 c 0
EndSplineSet
EndChar

StartChar: percent
Encoding: 37 37 121
Width: 112
VWidth: 0
Flags: W
VStem: 0 33<-102.563 103.003>
LayerCount: 2
Fore
SplineSet
0 0 m 0
 0 112 50 187 83 225 c 0
 100 245 125 237 104 207 c 0
 75 165 33 104 33 0 c 0
 33 -103 75 -165 104 -207 c 0
 125 -237 100 -245 83 -225 c 0
 50 -187 0 -111 0 0 c 0
EndSplineSet
EndChar

StartChar: L
Encoding: 76 76 122
Width: 400
VWidth: 0
Flags: W
HStem: -18 36<-119.999 519.999> 30 32<135.919 262.927> 101 21G<154.5 242.5> 482 20G<154.5 246> 482 20G<154.5 246> 542 32<137.073 264.081>
VStem: 2 32<194.807 410.909> 140 120<101.218 501.861> 366 32<193.091 409.193>
CounterMasks: 1 0380
LayerCount: 2
Fore
SplineSet
34 302 m 0xe780
 34 159 102 62 200 62 c 0
 296 62 366 155 366 302 c 0
 366 445 298 542 200 542 c 0
 104 542 34 449 34 302 c 0xe780
2 302 m 0
 2 456 79 574 200 574 c 0
 325 574 398 452 398 302 c 0
 398 148 321 30 200 30 c 0
 75 30 2 152 2 302 c 0
140 469 m 2
 140 492 143 502 166 502 c 2
 166 502 236 502 238 502 c 2xf780
 254 502 260 497 260 478 c 2
 260 125 l 2
 260 107 252 101 233 101 c 2
 165 101 l 2
 144 101 140 109 140 134 c 2
 140 469 l 2
507 18 m 2
 519 18 520 15 520 0 c 0
 520 -15 519 -18 506 -18 c 2
 -105 -18 l 2
 -119 -18 -120 -16 -120 0 c 0
 -120 15 -120 18 -106 18 c 2
 507 18 l 2
EndSplineSet
EndChar

StartChar: M
Encoding: 77 77 123
Width: 400
VWidth: 0
Flags: HW
HStem: -574 32<135.919 262.927> -62 32<137.073 264.081> -18 36<-119.999 519.999>
VStem: 2 32<-409.193 -193.091> 140 120<-501.861 -101.218> 366 32<-410.909 -194.807>
CounterMasks: 1 1c
LayerCount: 2
Fore
SplineSet
366 -302 m 0
 366 -159 298 -62 200 -62 c 0
 104 -62 34 -155 34 -302 c 0
 34 -445 102 -542 200 -542 c 0
 296 -542 366 -449 366 -302 c 0
398 -302 m 0
 398 -456 321 -574 200 -574 c 0
 75 -574 2 -452 2 -302 c 0
 2 -148 79 -30 200 -30 c 0
 325 -30 398 -152 398 -302 c 0
260 -469 m 2
 260 -492 257 -502 234 -502 c 2
 234 -502 164 -502 162 -502 c 2
 146 -502 140 -497 140 -478 c 2
 140 -125 l 2
 140 -107 148 -101 167 -101 c 2
 235 -101 l 2
 256 -101 260 -109 260 -134 c 2
 260 -469 l 2
-107 -18 m 2
 -119 -18 -120 -15 -120 0 c 0
 -120 15 -119 18 -106 18 c 2
 505 18 l 2
 519 18 520 16 520 0 c 0
 520 -15 520 -18 506 -18 c 2
 -107 -18 l 2
EndSplineSet
EndChar

StartChar: hyphen
Encoding: 45 45 124
Width: 167
VWidth: 0
Flags: HW
HStem: -453 20G<0 44>
VStem: 128 39<-173.39 173.39>
LayerCount: 2
Fore
SplineSet
167 0 m 0
 168 -243 67 -389 21 -453 c 1
 0 -436 l 1
 46 -366 129 -233 128 0 c 4
 128 233 46 366 0 436 c 1
 21 453 l 1
 67 389 167 243 167 0 c 0
EndSplineSet
EndChar

StartChar: period
Encoding: 46 46 125
Width: 178
VWidth: 0
Flags: HW
VStem: 137 41<-191.195 191.195>
LayerCount: 2
Fore
SplineSet
137 0 m 4
 137 268 40 429 0 498 c 1
 22 516 l 1
 68 444 178 267 178 0 c 0
 179 -267 68 -444 22 -516 c 1
 0 -498 l 1
 40 -429 138 -268 137 0 c 4
EndSplineSet
EndChar

StartChar: slash
Encoding: 47 47 126
Width: 196
VWidth: 0
Flags: HW
HStem: -630 20G<0 39.5>
VStem: 153 43<-198.502 198.502>
LayerCount: 2
Fore
SplineSet
196 0 m 0
 197 -352 55 -578 24 -630 c 1
 0 -614 l 1
 24 -568 154 -355 153 0 c 4
 153 355 24 568 0 614 c 1
 24 630 l 1
 55 578 196 352 196 0 c 0
EndSplineSet
EndChar

StartChar: zero
Encoding: 48 48 127
Width: 214
VWidth: 0
Flags: HW
HStem: -626 20G<15.5 20.5>
VStem: 181 33<-192.181 191.809>
LayerCount: 2
Fore
SplineSet
214 0 m 0
 215 -432 54 -708 24 -760 c 5
 0 -742 l 5
 23 -696 170 -424 169 0 c 0
 169 424 23 696 0 742 c 1
 24 760 l 1
 54 708 214 432 214 0 c 0
EndSplineSet
EndChar

StartChar: one
Encoding: 49 49 128
Width: 274
VWidth: 0
Flags: HW
HStem: -626 20G<75.5 80.5>
VStem: 241 33<-192.181 191.809>
LayerCount: 2
Fore
SplineSet
228 0 m 0
 228 466 39 813 0 878 c 1
 24 896 l 1
 64 826 274 500 274 0 c 0
 275 -500 64 -826 24 -896 c 5
 0 -878 l 5
 39 -813 229 -466 228 0 c 0
EndSplineSet
EndChar

StartChar: two
Encoding: 50 50 129
Width: 302
VWidth: 0
Flags: HW
HStem: -626 20G<103.5 108.5>
VStem: 269 33<-192.181 191.809>
LayerCount: 2
Fore
SplineSet
255 0 m 0
 255 573 28 944 0 994 c 1
 25 1012 l 1
 57 954 302 597 302 0 c 0
 303 -597 57 -954 25 -1012 c 5
 0 -994 l 5
 28 -944 256 -573 255 0 c 0
EndSplineSet
EndChar

StartChar: three
Encoding: 51 51 130
Width: 332
VWidth: 0
Flags: HW
HStem: -626 20G<133.5 138.5>
VStem: 299 33<-192.181 191.809>
LayerCount: 2
Fore
SplineSet
332 0 m 0
 333 -673 56 -1086 26 -1140 c 1
 0 -1120 l 1
 27 -1074 285 -653 284 0 c 0
 284 653 27 1074 0 1120 c 1
 26 1140 l 1
 56 1086 332 673 332 0 c 0
EndSplineSet
EndChar

StartChar: Edieresis
Encoding: 203 203 131
Width: 1200
VWidth: 0
Flags: W
HStem: -422 66<881.002 921.46> -39 38<-25 -5> 1 38<1209 1225> 354 67<279.04 323.389>
VStem: -34 38<-29 -16> 1196 38<10 30>
LayerCount: 2
Back
SplineSet
-15 -20 m 1029,0,0
-15 -20 m 5,0,0
 300 400 l 13,0,0
 900 -400 l 21,0,0
 1215 20 l 1029,0,0
1215 20 m 1029,0,0
EndSplineSet
Fore
SplineSet
-34 -20 m 0
 -34 -10 -25 -1 -15 -1 c 0
 -5 -1 4 -10 4 -20 c 0
 4 -30 -5 -39 -15 -39 c 0
 -25 -39 -34 -30 -34 -20 c 0
-15 -39 m 0
 -26 -39 -34 -29 -34 -21 c 0
 -34 -16 -32 -11 -30 -9 c 2
 285 411 l 2
 290 418 295 421 300 421 c 0
 305 421 310 418 315 411 c 2
 877 -337 l 2
 886 -350 893 -356 900 -356 c 0
 907 -356 914 -349 923 -338 c 2
 1200 31 l 2
 1204 37 1209 39 1214 39 c 0
 1226 39 1234 31 1234 20 c 0
 1234 16 1233 12 1230 9 c 2
 915 -411 l 2
 910 -418 905 -422 900 -422 c 0
 895 -422 890 -418 885 -411 c 2
 323 337 l 2
 315 348 308 354 300 354 c 0
 293 354 285 349 278 338 c 2
 0 -31 l 2
 -3 -35 -8 -39 -15 -39 c 0
1196 20 m 0
 1196 30 1205 39 1215 39 c 0
 1225 39 1234 30 1234 20 c 0
 1234 10 1225 1 1215 1 c 0
 1205 1 1196 10 1196 20 c 0
EndSplineSet
EndChar

StartChar: Igrave
Encoding: 204 204 132
Width: 1044
VWidth: 0
Flags: W
HStem: -421 74<762.555 803.569> 347 74<240.853 279.999>
LayerCount: 2
Back
SplineSet
-15 -20 m 1029,0,0
-15 -20 m 5,0,0
 260 400 l 13,0,0
 780 -400 l 21,0,0
 1055 20 l 1029,0,0
EndSplineSet
Fore
SplineSet
-13 -39 m 0
 -24 -39 -32 -29 -32 -20 c 0
 -32 -16 -31 -12 -29 -10 c 2
 246 410 l 2
 251 418 256 421 262 421 c 0
 268 421 274 417 278 410 c 2
 755 -323 l 2
 765 -339 773 -347 782 -347 c 0
 790 -347 799 -340 809 -325 c 2
 1041 30 l 2
 1045 37 1051 39 1057 39 c 0
 1068 39 1076 31 1076 20 c 0
 1076 17 1075 13 1073 10 c 2
 798 -410 l 2
 793 -418 788 -421 782 -421 c 0
 776 -421 771 -418 766 -410 c 2
 282 334 l 2
 277 342 270 347 262 347 c 0
 255 347 247 343 240 331 c 2
 3 -30 l 2
 0 -34 -6 -39 -13 -39 c 0
EndSplineSet
EndChar

StartChar: Iacute
Encoding: 205 205 133
Width: 923
VWidth: 0
Flags: HW
HStem: -363 80<667.417 711.199> -39 38<-25 -5> 289 74<208.838 252.375>
VStem: -34 38<-29 -16>
LayerCount: 2
Fore
SplineSet
-33 -20 m 0
 -33 -10 -24 -1 -14 -1 c 0
 -4 -1 5 -10 5 -20 c 0
 5 -30 -4 -39 -14 -39 c 0
 -24 -39 -33 -30 -33 -20 c 0
-14 -39 m 0
 -25 -39 -33 -29 -33 -20 c 0
 -33 -16 -31 -12 -30 -9 c 2
 215 351 l 2
 221 359 226 363 231 363 c 0
 237 363 242 358 247 351 c 2
 655 -254 l 2
 668 -272 679 -283 691 -283 c 0
 702 -283 712 -275 725 -256 c 2
 920 31 l 2
 924 37 930 39 936 39 c 0
 947 39 955 31 955 20 c 0
 955 16 954 13 952 9 c 2
 707 -351 l 2
 701 -359 696 -363 691 -363 c 0
 686 -363 680 -358 675 -351 c 2
 256 269 l 2
 248 281 240 289 232 289 c 0
 223 289 214 282 203 266 c 2
 2 -31 l 2
 -1 -35 -7 -39 -14 -39 c 0
EndSplineSet
EndChar

StartChar: Otilde
Encoding: 213 213 134
Width: 126
VWidth: 0
Flags: W
VStem: 0 32<-21.7147 21.7147> 12 50<-408.494 -283.395 283.395 408.494> 72 54<-205.774 -95.5466 95.5466 205.774>
LayerCount: 2
Fore
SplineSet
32 0 m 3xa0
 32 8 38 11 45 20 c 0
 74 54 126 103 126 165 c 3
 126 243 62 283 62 365 c 3
 62 416 88 442 121 486 c 0
 124 490 126 494 126 497 c 0
 126 502 121 505 116 505 c 0
 111 505 106 503 101 499 c 0
 82 482 12 410 12 320 c 3x60
 12 234 72 204 72 135 c 3
 72 83 37 49 13 19 c 0
 6 10 0 7 0 0 c 3xa0
 0 -6 6 -10 13 -19 c 0
 37 -49 72 -83 72 -135 c 3
 72 -204 12 -234 12 -320 c 3
 12 -410 82 -482 101 -499 c 0
 106 -503 111 -505 116 -505 c 0
 121 -505 126 -502 126 -497 c 0
 126 -494 124 -490 121 -486 c 0
 88 -442 62 -416 62 -365 c 3x60
 62 -283 126 -243 126 -165 c 3
 126 -103 74 -54 45 -20 c 0
 38 -11 32 -7 32 0 c 3xa0
EndSplineSet
EndChar

StartChar: eth
Encoding: 240 240 135
Width: 107
VWidth: 0
Flags: W
VStem: 3 101<-219 -67.8613> 482 26<326.17 399.743>
LayerCount: 2
Back
SplineSet
-5 -4 m 7
 -5 27 3 34 25 35 c 4
 398 45 557 240 615 326 c 4
 632 351 637 367 647 367 c 7
 651 367 652 364 652 358 c 4
 652 322 617 251 563 190 c 4
 479 96 339 -10 184 -44 c 4
 118 -59 104 -83 104 -149 c 6
 104 -219 l 21
 3 -219 l 5
 3 -200 l 6
 3 -182 -5 -19 -5 -4 c 7
EndSplineSet
Fore
SplineSet
-5 -4 m 3
 -5 27 3 35 25 35 c 2
 41 35 l 2
 306 35 450 150 482 383 c 0
 486 411 509 410 508 380 c 0
 499 144 323 -12 169 -50 c 0
 119 -62 104 -70 104 -149 c 6
 104 -219 l 17
 3 -219 l 1
 3 -200 l 2
 3 -182 -5 -19 -5 -4 c 3
EndSplineSet
EndChar

StartChar: ntilde
Encoding: 241 241 136
Width: 107
VWidth: 0
Flags: HW
VStem: 3 101<64.0928 219> 482 26<-399.174 -321.964>
LayerCount: 2
Fore
SplineSet
-5 4 m 3
 -5 19 3 182 3 200 c 2
 3 219 l 1
 104 219 l 9
 104 149 l 2
 104 61 118 60 184 45 c 0
 355 6 494 -120 508 -380 c 0
 510 -410 486 -411 482 -383 c 0
 450 -156 346 -35 121 -35 c 2
 25 -35 l 2
 3 -35 -5 -27 -5 4 c 3
EndSplineSet
EndChar

StartChar: ograve
Encoding: 242 242 137
Width: 101
VWidth: 0
Flags: HW
HStem: 507 20G<403.5 416>
VStem: -4 108<-199.04 -24.77> 3 101<-219 -24.77> 393 32<343.352 526.602>
LayerCount: 2
Back
SplineSet
104 -70 m 2xa0
 104 -219 l 17
 3 -219 l 1
 3 -200 l 2x60
 3 -182 -5 -19 -5 -4 c 3
 -5 27 2.97728 35 25 35 c 0
 307 35 389 345 387 500 c 0
 386.548 535.003 414.521 530.794 419.333 518.667 c 0
 427.667 497.667 427.5 455.892 427.5 448 c 0
 427.5 239 302 56 150 -13 c 0
 118.148 -27.4591 104 -32.5 104 -70 c 2xa0
EndSplineSet
Fore
SplineSet
407 527 m 0xd0
 425 527 425 465 425 448 c 0
 425 239 313 61 150 -13 c 0
 118 -27 104 -32 104 -70 c 2xd0
 104 -219 l 17
 3 -219 l 1
 3 -200 l 2xb0
 3 -182 -6 -8 -6 7 c 3
 -6 32 -3 35 25 35 c 0
 288 35 393 265 393 478 c 2
 393 503 l 2
 393 523 400 527 407 527 c 0xd0
EndSplineSet
EndChar

StartChar: oacute
Encoding: 243 243 138
Width: 101
VWidth: 0
Flags: HW
HStem: 507 20G<403.5 416>
VStem: -4 108<-199.04 -24.77> 3 101<-219 -24.77> 393 32<343.352 526.602>
LayerCount: 2
Fore
SplineSet
407 -527 m 4xd0
 400 -527 393 -523 393 -503 c 6
 393 -478 l 6
 393 -265 288 -35 25 -35 c 4
 -3 -35 -6 -32 -6 -7 c 7
 -6 8 3 182 3 200 c 6xb0
 3 219 l 5
 104 219 l 13
 104 70 l 6xd0
 104 32 118 27 150 13 c 4
 313 -61 425 -239 425 -448 c 4
 425 -465 425 -527 407 -527 c 4xd0
EndSplineSet
EndChar

StartChar: ocircumflex
Encoding: 244 244 139
Width: 101
VWidth: 0
Flags: W
HStem: 507 20G<490.5 503>
VStem: -6 110<-218.703 -22.4268> 3 101<-219 -22.4268> 480 32<358.023 526.602>
LayerCount: 2
Back
SplineSet
407 527 m 4xd0
 425 527 425 465 425 448 c 4
 425 239 313 61 150 -13 c 4
 118 -27 104 -32 104 -70 c 6xd0
 104 -219 l 21
 3 -219 l 5
 3 -200 l 6xb0
 3 -182 -6 -8 -6 7 c 7
 -6 32 -3 35 25 35 c 4
 288 35 393 265 393 478 c 6
 393 503 l 6
 393 523 400 527 407 527 c 4xd0
EndSplineSet
Fore
SplineSet
494 527 m 0xd0
 512 527 512 465 512 448 c 0
 512 239 380 54 150 -13 c 0
 116 -23 104 -32 104 -70 c 2xd0
 104 -219 l 17
 3 -219 l 1
 3 -200 l 2xb0
 3 -182 -6 -8 -6 7 c 3
 -6 32 -3 35 25 35 c 0
 356 35 480 265 480 478 c 2
 480 503 l 2
 480 523 487 527 494 527 c 0xd0
EndSplineSet
EndChar

StartChar: otilde
Encoding: 245 245 140
Width: 101
VWidth: 0
Flags: HW
HStem: -527 20G<490.5 503>
VStem: -6 110<22.4268 218.703> 3 101<22.4268 219> 480 32<-526.602 -358.023>
LayerCount: 2
Fore
SplineSet
494 -527 m 0xd0
 487 -527 480 -523 480 -503 c 2
 480 -478 l 2
 480 -265 356 -35 25 -35 c 0
 -3 -35 -6 -32 -6 -7 c 3
 -6 8 3 182 3 200 c 2xb0
 3 219 l 1
 104 219 l 9
 104 70 l 2xd0
 104 32 116 23 150 13 c 0
 380 -54 512 -239 512 -448 c 0
 512 -465 512 -527 494 -527 c 0xd0
EndSplineSet
EndChar

StartChar: uacute
Encoding: 250 250 141
Width: 125
VWidth: 0
Flags: HW
HStem: 507 20G<424.5 437>
VStem: -9 134<-218.703 -24.77> 0 125<-219 -25.6938> 414 32<343.352 526.602>
LayerCount: 2
Back
SplineSet
407 527 m 4xd0
 425 527 425 465 425 448 c 4
 425 239 313 61 150 -13 c 4
 118 -27 104 -32 104 -70 c 6xd0
 104 -219 l 21
 3 -219 l 5
 3 -200 l 6xb0
 3 -182 -6 -8 -6 7 c 7
 -6 32 -3 35 25 35 c 4
 288 35 393 265 393 478 c 6
 393 503 l 6
 393 523 400 527 407 527 c 4xd0
EndSplineSet
Fore
SplineSet
428 527 m 0xd0
 446 527 446 465 446 448 c 0
 446 239 334 61 171 -13 c 0
 139 -27 125 -32 125 -70 c 2xd0
 125 -219 l 17
 3 -219 l 1
 3 -200 l 2xb0
 3 -182 -6 -8 -6 7 c 3
 -6 30 -2.75 35 19 35 c 2
 46 35 l 2
 309 35 414 265 414 478 c 2
 414 503 l 2
 414 523 421 527 428 527 c 0xd0
EndSplineSet
EndChar

StartChar: ucircumflex
Encoding: 251 251 142
Width: 125
VWidth: 0
Flags: HW
HStem: -527 20G<424.5 437>
VStem: -9 134<24.77 218.703> 0 125<25.6938 219> 414 32<-526.602 -343.352>
LayerCount: 2
Fore
SplineSet
428 -527 m 0xd0
 421 -527 414 -523 414 -503 c 2
 414 -478 l 2
 414 -265 309 -35 46 -35 c 2
 19 -35 l 2
 -2.75 -35 -6 -30 -6 -7 c 3
 -6 8 3 182 3 200 c 2xb0
 3 219 l 1
 125 219 l 9
 125 70 l 2xd0
 125 32 139 27 171 13 c 0
 334 -61 446 -239 446 -448 c 0
 446 -465 446 -527 428 -527 c 0xd0
EndSplineSet
EndChar

StartChar: udieresis
Encoding: 252 252 143
Width: 125
VWidth: 0
Flags: HW
HStem: 507 20G<511.5 524>
VStem: 15 110<-218.703 -22.4268> 24 101<-219 -22.4268> 501 32<358.023 526.602>
LayerCount: 2
Back
SplineSet
46 35 m 2
 377 35 501 265 501 478 c 2
 501 503 l 2
 501 523 508 527 515 527 c 0xd0
 533 527 533 465 533 448 c 0
 533 239 401 54 171 -13 c 0
 137 -23 125 -32 125 -70 c 2xd0
 125 -219 l 17
 3 -219 l 1
 3 -200 l 2
 3 -182 -6 -8 -6 7 c 3
 -6 30 -2.75 35 19 35 c 2
 46 35 l 2
EndSplineSet
Fore
SplineSet
534 529 m 1
 533 495 l 2
 525 209 382 14 122 -40 c 9xd0
 122 -80 l 1
 0 -80 l 1
 0 35 l 1
 19 35 l 2
 376 35 487 258 500 510 c 2
 501 530 l 1
 534 529 l 1
EndSplineSet
EndChar

StartChar: yacute
Encoding: 253 253 144
Width: 125
VWidth: 0
Flags: HW
HStem: -527 20G<512 524>
VStem: 15 110<22 219> 24 101<22 219> 501 32<-527 -358>
LayerCount: 2
Back
SplineSet
46 -35 m 2
 19 -35 l 2
 -2.75 -35 -6 -30 -6 -7 c 3
 -6 8 3 182 3 200 c 2
 3 219 l 1
 125 219 l 9
 125 70 l 2xd0
 125 32 137 23 171 13 c 0
 401 -54 533 -239 533 -448 c 0
 533 -465 533 -527 515 -527 c 0xd0
 508 -527 501 -523 501 -503 c 2
 501 -478 l 2
 501 -265 377 -35 46 -35 c 2
EndSplineSet
Fore
SplineSet
534 -529 m 1
 501 -530 l 1
 500 -510 l 2
 487 -258 376 -35 19 -35 c 2
 0 -35 l 1
 0 80 l 1
 122 80 l 1
 122 40 l 17xd0
 382 -14 525 -209 533 -495 c 2
 534 -529 l 1
EndSplineSet
EndChar

StartChar: cedilla
Encoding: 184 184 145
Width: 980
Flags: W
HStem: -15 30<0 980> 235 30<0 980> 485 30<0 980> 735 30<0 980> 985 30<0 980>
LayerCount: 2
Fore
SplineSet
0 985 m 0
 0 1015 l 1
 980 1015 l 1
 980 985 l 0
 0 985 l 0
0 735 m 0
 0 765 l 0
 980 765 l 0
 980 735 l 0
 0 735 l 0
0 485 m 0
 0 515 l 1
 980 515 l 1
 980 485 l 0
 0 485 l 0
0 235 m 0
 0 265 l 0
 980 265 l 0
 980 235 l 0
 0 235 l 0
0 -15 m 0
 0 15 l 1
 980 15 l 1
 980 -15 l 0
 0 -15 l 0
EndSplineSet
EndChar

StartChar: Odieresis
Encoding: 214 214 146
Width: 272
VWidth: 0
Flags: HW
VStem: 22 93<-562.52 -327.505 330.915 562.52> 157 94<-1436.8 -1051.53 1051.53 1436.77>
LayerCount: 2
Back
SplineSet
227 0 m 4xa0
 227 12 220 17 210 28 c 4
 120 135 22 286 22 489 c 7
 22 708 157 928 157 1308 c 7
 157 1554 100 1795 7 1950 c 4
 2 1958 0 1965 0 1971 c 4
 0 1979 5 1984 11 1984 c 4
 19 1984 29 1978 38 1965 c 4
 83 1902 251 1572 251 1208 c 7xc0
 251 810 115 636 115 386 c 7
 115 228 175 127 256 25 c 4
 274.224 0.701773 273.882 -1.15772 256 -25 c 4
 175 -127 115 -228 115 -386 c 7
 115 -636 251 -810 251 -1208 c 7
 251 -1572 83 -1902 38 -1965 c 4
 29 -1978 19 -1984 11 -1984 c 4
 5 -1984 0 -1979 0 -1971 c 4
 0 -1965 2 -1958 7 -1950 c 4
 100 -1795 157 -1554 157 -1308 c 7xc0
 157 -928 22 -708 22 -489 c 7
 22 -286 120 -135 210 -28 c 4
 220 -17 227 -13 227 0 c 4xa0
EndSplineSet
Fore
SplineSet
210 28 m 0
 120 136 22 286 22 489 c 3
 22 708 157 928 157 1308 c 3
 157 1554 100 1795 7 1950 c 0
 2 1958 0 1965 0 1971 c 0
 0 1979 5 1984 11 1984 c 0
 19 1984 29 1978 38 1965 c 0
 83 1902 251 1572 251 1208 c 3
 251 810 115 636 115 386 c 3
 115 213 184 118 265 13 c 0
 269 7 272 3 272 -0 c 0
 272 -3 269 -6 265 -12 c 0
 182 -123 115 -211 115 -386 c 3
 115 -636 251 -810 251 -1208 c 3
 251 -1572 83 -1902 38 -1965 c 0
 29 -1978 19 -1984 11 -1984 c 0
 5 -1984 0 -1979 0 -1971 c 0
 0 -1965 2 -1958 7 -1950 c 0
 100 -1795 157 -1554 157 -1308 c 3
 157 -928 22 -708 22 -489 c 3
 22 -286 116 -140 210 -28 c 0
 222 -14 227 -7 227 0 c 0
 227 7 221 14 210 28 c 0
EndSplineSet
EndChar

StartChar: Dcroat
Encoding: 272 272 147
Width: 0
VWidth: -9
Flags: HW
LayerCount: 2
Back
SplineSet
0 147 m 0
 4 147 19 106 45 58 c 0
 73 9 99 -24 97 -28 c 0
 95 -31 40 3 0 3 c 0
 -40 3 -95 -31 -97 -28 c 0
 -99 -24 -73 9 -45 58 c 0
 -19 106 -4 147 0 147 c 0
83 -11 m 0
 83 -17 77 -18 75 -18 c 3
 57 -18 35 10 -1 10 c 3
 -35 10 -63 -18 -77 -18 c 3
 -79 -18 -83 -16 -83 -11 c 0
 -83 -1 -73 8 -39 67 c 0
 -11 116 -9 136 1 136 c 0
 15 136 11 117 41 66 c 0
 73 13 83 1 83 -11 c 0
EndSplineSet
Fore
SplineSet
0 147 m 4
 4 147 19 106 45 58 c 4
 73 9 99 -24 97 -28 c 4
 95 -31 40 3 0 3 c 4
 -40 3 -95 -31 -97 -28 c 4
 -99 -24 -73 9 -45 58 c 4
 -19 106 -4 147 0 147 c 4
EndSplineSet
EndChar

StartChar: dcroat
Encoding: 273 273 148
Width: 0
VWidth: -9
Flags: HW
LayerCount: 2
Fore
SplineSet
0 775 m 4
 4 775 16 737 40 693 c 4
 65 648 90 619 88 616 c 4
 86 613 36 644 0 644 c 4
 -36 644 -86 613 -88 616 c 4
 -90 619 -65 648 -40 693 c 4
 -16 737 -4 775 0 775 c 4
EndSplineSet
EndChar
